<svg xmlns="http://www.w3.org/2000/svg" viewBox="0 0 828.25 164.53"><defs><style>.cls-1{fill:#fff;}</style></defs><g id="Layer_2" data-name="Layer 2"><g id="line"><path class="cls-1" d="M16,154a2.66,2.66,0,0,1-1.34-.45,3.77,3.77,0,0,1-1.92-3.1q0-3.11,4-4.58a12.2,12.2,0,0,1,3.26-.45,36.92,36.92,0,0,1-14.49-11.9A28.06,28.06,0,0,1,0,116.79a32.08,32.08,0,0,1,1.77-10.28A40.42,40.42,0,0,1,7.39,95.94a30.76,30.76,0,0,1,6.21-6.65,7.3,7.3,0,0,0,1.63-3.1,13.85,13.85,0,0,0,.44-3.26,8.78,8.78,0,0,0-1.33-4.58c-.89-1.48-1.92-2-3.11-1.63h-.29c-.49,0-.74-.19-.74-.59,0-.59.39-1.13,1.18-1.62a5.15,5.15,0,0,1,3-1,4.24,4.24,0,0,1,3.47,1.78,7.13,7.13,0,0,1,1.41,4.58,11.16,11.16,0,0,1-.67,3.7,10.19,10.19,0,0,1-2.14,3.54A47.6,47.6,0,0,1,27.2,81.23a55.06,55.06,0,0,1,12.27-3.17c0-.2.24-.3.74-.3a14.47,14.47,0,0,0,3.25-.37,13.26,13.26,0,0,0,3.11-1.11,8.76,8.76,0,0,0,4.28-3.84A5.71,5.71,0,0,1,47.23,70a7.38,7.38,0,0,1-1.4-4.36,10.41,10.41,0,0,1,.74-4.21c.49-1.14.93-2.1,1.33-2.89.19-.49.39-1.06.59-1.7a6.94,6.94,0,0,0,.29-2,6.31,6.31,0,0,0-.51-2.52,2.57,2.57,0,0,0-2-1.47,1.74,1.74,0,0,1,.59-.6A2.87,2.87,0,0,1,48.34,50a6.5,6.5,0,0,1,4.73,2.36,20.82,20.82,0,0,1,3.69,5.55,13.66,13.66,0,0,1,1.48,5.69A9.86,9.86,0,0,1,56.4,69.7a6.28,6.28,0,0,1-4.07,2.74,9.41,9.41,0,0,1-4.29,5,49.82,49.82,0,0,1,15.08,2.59,35.12,35.12,0,0,1,12.71,7.47,18.09,18.09,0,0,1,4,4.51,30.47,30.47,0,0,1,2.67,5.24A8.25,8.25,0,0,0,84.7,98.9a17.6,17.6,0,0,0,2.07.89,3.06,3.06,0,0,0,.89.14h.89c2,0,3-.54,3.1-1.62.2-.49.39-.74.59-.74.69,0,1,.84,1,2.51a3.44,3.44,0,0,1-1.11,2.74,4,4,0,0,1-2.74,1,6.51,6.51,0,0,1-3.1-.89,7.07,7.07,0,0,1-2.81-2.22,22.28,22.28,0,0,1,.44,4.44A16.66,16.66,0,0,1,81.6,114a9.94,9.94,0,0,1-.81,5.1,8.1,8.1,0,0,1-4.66,4.06,10.86,10.86,0,0,1-4,.74,18.6,18.6,0,0,1-4.44-.59,35.47,35.47,0,0,1-4.58-1.48,9,9,0,0,0-2.81-.44c-2.17,0-3.64.59-4.43,1.77-.4.69-.69,1.18-.89,1.48s-.39.15-.59-.44a4.24,4.24,0,0,1-.44-1.93,6,6,0,0,1,2.51-4.73,13.21,13.21,0,0,1,5.1-2.36,23.22,23.22,0,0,1,5.39-.74,10.92,10.92,0,0,1,1.26.07,5.19,5.19,0,0,1,1,.23,1.64,1.64,0,0,1,.52.07,1.18,1.18,0,0,0,.37.07,2.4,2.4,0,0,1-1-2.07,4.07,4.07,0,0,1,1.33-3.4.89.89,0,0,1,.6-.29.58.58,0,0,1,.59.37.86.86,0,0,1-.15.81,2.08,2.08,0,0,0-.3,1.18,3.21,3.21,0,0,0,1.48,2.59,4.86,4.86,0,0,0,3.4,1,11.52,11.52,0,0,0,3.55-1.33v-.15A14.17,14.17,0,0,0,82,105.4a20.62,20.62,0,0,0-2-8.64,22.61,22.61,0,0,0-5.69-7.62,32.1,32.1,0,0,0-11.09-6.35,40.88,40.88,0,0,0-13-2.07A50.16,50.16,0,0,0,30.9,84.63,42.49,42.49,0,0,0,15.23,95.5a18.73,18.73,0,0,1,2.21-.44,14.41,14.41,0,0,1,2.07-.15H21a4.1,4.1,0,0,1,1.48.29,6.2,6.2,0,0,1,4.58-1.62,10.45,10.45,0,0,1,7,2.81A15.54,15.54,0,0,1,37.84,102a17.54,17.54,0,0,1,1.63,7.1,7.89,7.89,0,0,1-.89,3.84,2.48,2.48,0,0,1-1.33,1.26,4.18,4.18,0,0,1-1,.22,5,5,0,0,0,.29-1.48,4,4,0,0,0-1.92-3.32,8.72,8.72,0,0,0-3.55-1.7c-1-.2-2-.47-3.18-.82a13.28,13.28,0,0,1-3.76-2,6.85,6.85,0,0,1-2.3-2.74A7.68,7.68,0,0,1,21,99.05a6.07,6.07,0,0,1,.44-2.37,10.69,10.69,0,0,0-1.1-.22,9.15,9.15,0,0,0-1.26-.07,11.49,11.49,0,0,0-6.5,2.51,32.66,32.66,0,0,0-4.73,9.39,31.65,31.65,0,0,0-1.48,9.38,26.92,26.92,0,0,0,3.69,13.75,30.21,30.21,0,0,0,10.35,10.5,37.24,37.24,0,0,0,15.52,5.17,82.17,82.17,0,0,0,8.28.44,63.36,63.36,0,0,0,13.6-1.4,55.89,55.89,0,0,0,12-4.07h-.59a9.28,9.28,0,0,1-5.62-1.84,5.37,5.37,0,0,1-2.51-4.37A3,3,0,0,1,62.53,133a5.63,5.63,0,0,1,2.66-.81,1.46,1.46,0,0,1,1.18.37c.2.24-.05.56-.74,1a2.32,2.32,0,0,0-1,2.22,4.94,4.94,0,0,0,.89,2.81,9.23,9.23,0,0,0,2,2,4.61,4.61,0,0,0,3.33,1,71.49,71.49,0,0,0,20.54-15.08,169.17,169.17,0,0,0,16.86-20.84Q116,94.17,123.73,82.93q7.39-10.79,15.37-20.84A85.09,85.09,0,0,1,156,45.68q-8.72-3-17.51-5.76a124.84,124.84,0,0,0-18-4.29,20.23,20.23,0,0,0-3-.37c-1,0-2-.12-3-.22a12.73,12.73,0,0,0-4.88,2.22,10.32,10.32,0,0,0-3,3,4.14,4.14,0,0,1,1.78,3.7,6,6,0,0,1-1.48,4.14,11.35,11.35,0,0,1-2.59,2.21A20.43,20.43,0,0,1,102,51.45a12,12,0,0,0-2.29,1.77,3.59,3.59,0,0,0-1.26,2.66A2,2,0,0,0,99,57.36a.34.34,0,0,0-.22.07.29.29,0,0,1-.22.08A2.46,2.46,0,0,1,97,56.62c-1.08-1.08-1.62-2.86-1.62-5.32a17.74,17.74,0,0,1,.59-4.51A11.52,11.52,0,0,1,97.56,43q2.81-3.69,6.51-3.69a5.34,5.34,0,0,1,1.62.29,7.42,7.42,0,0,1,2.3-2.81,14.39,14.39,0,0,1,3.47-1.92A48.2,48.2,0,0,0,94.53,37a32.62,32.62,0,0,0-11.75,6.66A27.7,27.7,0,0,0,76,53a25.22,25.22,0,0,0-2.22,10.12,20,20,0,0,0,4.59,13q4.58,5.63,13,5.62a21.48,21.48,0,0,0,10.21-2.59,23.76,23.76,0,0,0,8.2-7.17,18.18,18.18,0,0,0,3.47-10.49,12.42,12.42,0,0,0-.44-2.14,3.43,3.43,0,0,0-.74-1.41,4.22,4.22,0,0,0-3.55-1.77,2.08,2.08,0,0,0-1.48.44.83.83,0,0,1-.59.3c-.29,0-.44-.2-.44-.59a2.22,2.22,0,0,1,.44-1.34,4.1,4.1,0,0,1,3.7-2.36c1.87,0,3.25,1.09,4.14,3.25a7.86,7.86,0,0,1,.59,3.4v.89a2.82,2.82,0,0,1-.15.89,27.21,27.21,0,0,1-.15,2.88,23.56,23.56,0,0,1-.44,2.73,6.48,6.48,0,0,1,1-.88,4.89,4.89,0,0,1,2.8-.89,3.7,3.7,0,0,1,2.52.89,3.12,3.12,0,0,1,1,2.51,2,2,0,0,1-.44,1.55c-.3.25-.54.07-.74-.52-.2-.78-1-1.18-2.37-1.18a6.52,6.52,0,0,0-.88.07,7.28,7.28,0,0,0-.89.23,6.66,6.66,0,0,0-2.37,1.47,9.85,9.85,0,0,0-2.21,3,22.06,22.06,0,0,1-8.65,8A24.4,24.4,0,0,1,91.5,83.67a25,25,0,0,1-12.93-3.1,20.38,20.38,0,0,1-7.91-8.21A23.19,23.19,0,0,1,68,61.5a27.42,27.42,0,0,1,4.51-14.64Q77,39.63,86.33,35.48A4.3,4.3,0,0,1,84.41,35a9.17,9.17,0,0,1-4.73-3.11c-.4.1-.82.23-1.26.37a4.33,4.33,0,0,1-1.4.23,9,9,0,0,1-3.55-.82,11,11,0,0,1-3.55-2.44,16.12,16.12,0,0,1-3-5.24,18.12,18.12,0,0,1-1.26-6.43,9.62,9.62,0,0,1,.3-2.37,4.89,4.89,0,0,1,.89-1.92q.74-1.19,1.47-1.26c.5-.05.79,0,.89.08a2.4,2.4,0,0,0-.44,1.47,4.16,4.16,0,0,0,1.7,3.11,7,7,0,0,0,3.18,1.77c.88.3,1.87.65,2.95,1A10.27,10.27,0,0,1,80,21.74a7.14,7.14,0,0,1,2.52,5.61,5.3,5.3,0,0,1-1.63,3.85,10.66,10.66,0,0,0,4.58,2.36,16.58,16.58,0,0,0,2.81.37,17.32,17.32,0,0,0,2.81-.07,50.68,50.68,0,0,1,15.08-2.07,76.91,76.91,0,0,1,11.38.88,164.56,164.56,0,0,1,20.33,4.73q11,3.26,20.62,6.51a44.54,44.54,0,0,1,8.79-4,29.39,29.39,0,0,1,9.24-1.48q4.14,0,6.28,1.77a5,5,0,0,1,2.15,3.85,5.29,5.29,0,0,1-2.44,4.21q-2.44,1.84-7.61,1.85a26.91,26.91,0,0,1-3.85-.3c-1.38-.2-2.91-.49-4.58-.89q-1.19-.28-2.37-.66c-.79-.25-1.57-.52-2.36-.81a82.83,82.83,0,0,0-11.38,12q-5.47,6.95-9.76,13.6t-6.8,10.79V84h31q6.51-9.16,14.12-18.41T194.54,48a188.73,188.73,0,0,1,15.74-14.78,96.11,96.11,0,0,1,14.41-10.12q6.66-3.7,11.38-3.7A7.55,7.55,0,0,1,241,20.92c1.28,1,1.78,3,1.48,5.84h-1.92a3.23,3.23,0,0,1,.07-.66,3.47,3.47,0,0,0,.08-.67,3.87,3.87,0,0,0-1.19-3.18,4.31,4.31,0,0,0-2.8-1q-4.14,0-10.13,4.07a91.94,91.94,0,0,0-12.79,10.79q-6.8,6.72-13.6,14.63T187.37,66.45q-6,7.76-10.42,14t-6.36,9.31q-5.18,8.58-9.24,16.49a118.42,118.42,0,0,0-6.14,13.67c-.49,1.58-.88,2.93-1.18,4.06a12.1,12.1,0,0,0-.44,2.89c0,1.67.64,2.51,1.92,2.51,1.08,0,2.91-.69,5.47-2.07a38.53,38.53,0,0,0,8.8-6.58,53.92,53.92,0,0,0,5.39-6l1,1q-4.14,5-8.28,9.24a30,30,0,0,1-10.35,6.72,18,18,0,0,1-2.81.89,11.43,11.43,0,0,1-2.51.3,6,6,0,0,1-5-2.29,9.54,9.54,0,0,1-1.77-6q0-6.36,4.88-16.63a154.66,154.66,0,0,1,13-21.95h-30.9a256.09,256.09,0,0,1-16.63,24.24,134.23,134.23,0,0,1-19.66,20.55A87.17,87.17,0,0,1,72.66,145a74,74,0,0,1-28,5.17c-3,0-6.06-.14-9.31-.44a57.44,57.44,0,0,1-11.53-2.66,5.46,5.46,0,0,0-3,.22,7.63,7.63,0,0,0-2.21,1.11,7.16,7.16,0,0,0-2.22,2.36,2,2,0,0,0-.15,2.22l.3.59C16.56,153.89,16.36,154,16,154ZM177.09,47.9a6.86,6.86,0,0,0,4-1.33,3.39,3.39,0,0,0,1.48-2.66,3,3,0,0,0-1.4-2.37,8,8,0,0,0-4.66-1,17.1,17.1,0,0,0-6.21,1.55,36.08,36.08,0,0,0-6.35,3.77,46.94,46.94,0,0,0,6.35,1.63A43.47,43.47,0,0,0,177.09,47.9Z"/><path class="cls-1" d="M190.4,129.94a12.65,12.65,0,0,1-6.29-1.62,10.19,10.19,0,0,1-4.36-5.33,16.77,16.77,0,0,1-1-6.35,29.73,29.73,0,0,1,1.77-9.91A44.29,44.29,0,0,1,188,92.91a40,40,0,0,1,10.87-9.46,23.82,23.82,0,0,1,12-3.47q5.48,0,8,3a11.29,11.29,0,0,1,2.51,7.54,25.22,25.22,0,0,1-.67,5.62,52.51,52.51,0,0,1-1.7,5.91,31.47,31.47,0,0,1-3.84,7.54q-2.37,3.4-4,5.32a7.21,7.21,0,0,0,6.73.23,20,20,0,0,0,6.43-4.74,41.77,41.77,0,0,0,4.73-6,1.3,1.3,0,0,1,.81-.74,3.18,3.18,0,0,1,.66-.15q1.49,0,.6,1.77-4.89,8-10.8,11.17t-10.49.37l-.3.44a44.5,44.5,0,0,1-4.87,6,24.86,24.86,0,0,1-5.92,4.5,19.29,19.29,0,0,1-4.14,1.63A16.69,16.69,0,0,1,190.4,129.94Zm1.33-2.51a14.08,14.08,0,0,0,6.65-1.92,25.64,25.64,0,0,0,5.69-4.44,39.44,39.44,0,0,0,4.21-5,6.56,6.56,0,0,1-2.81-2.74,9.55,9.55,0,0,1-1.18-5,20.61,20.61,0,0,1,1.26-6.73,17.38,17.38,0,0,1,3.55-6.13A6.76,6.76,0,0,1,214.2,93a4.48,4.48,0,0,1,2.88.88,2.6,2.6,0,0,1,1.11,2.07,10.53,10.53,0,0,0,.51-2.22,21.5,21.5,0,0,0,.23-3.25c0-2.56-.5-4.41-1.48-5.54a5,5,0,0,0-4-1.7,8.25,8.25,0,0,0-2.15.3c-.74.19-1.5.44-2.29.73q-5.46,2.22-11.16,8.28A42.85,42.85,0,0,0,189.21,106a58.65,58.65,0,0,0-2.21,7,29.63,29.63,0,0,0-1,7.39q0,3.86,1.7,5.47A5.65,5.65,0,0,0,191.73,127.43Zm31.48-42.87a20.25,20.25,0,0,1-3.77-.3,10.42,10.42,0,0,1-2.73-.88c-.79-.3-1.18-.64-1.18-1,0-.59.39-.78,1.18-.59a10,10,0,0,0,2.07.44,17.73,17.73,0,0,0,2.22.15c2.26,0,3.81-.39,4.65-1.18a3.72,3.72,0,0,0,1.26-2.81,8.28,8.28,0,0,0-.74-3.1,4.87,4.87,0,0,1-.3-.82,3.93,3.93,0,0,1-.14-1.11q0-1.77,1.47-1.77c1.09,0,2,.74,2.81,2.22a11,11,0,0,1,1.33,4.88,5.17,5.17,0,0,1-2.07,4.28Q227.2,84.57,223.21,84.56Z"/><path class="cls-1" d="M232.67,129.65a9.75,9.75,0,0,1-6.72-2.44q-2.74-2.44-2.74-7a20.29,20.29,0,0,1,.89-5.46,38.4,38.4,0,0,1,2.44-6c.93-1.82,2.14-3.92,3.62-6.28L244.65,81a4.6,4.6,0,0,1,2.21-1,16.94,16.94,0,0,1,2.81-.22,14.66,14.66,0,0,1,3.55.37c1,.25,1.38.62,1.18,1.11L239.77,103c-.3.39-1.26,1.75-2.88,4.06a74.4,74.4,0,0,0-4.66,7.62q-2.8,5.18-2.81,8.86,0,4,3.7,4a10.48,10.48,0,0,0,2.88-.52,22.89,22.89,0,0,0,3.92-1.7q9.3-5.17,19.07-21,.43-.74.81-.81a3.14,3.14,0,0,1,.52-.08.93.93,0,0,1,1,.52,1.4,1.4,0,0,1-.22,1.25,132.69,132.69,0,0,1-10.43,14,33.13,33.13,0,0,1-10.71,8.57A16.74,16.74,0,0,1,232.67,129.65Zm24.54-55.59A3.9,3.9,0,0,1,254,72.73a4.68,4.68,0,0,1-1.11-3.1A5.91,5.91,0,0,1,255,64.9a6.73,6.73,0,0,1,4.44-1.78,4.28,4.28,0,0,1,3.25,1.26,4.45,4.45,0,0,1,1.18,3.18,6,6,0,0,1-2.07,4.66A6.71,6.71,0,0,1,257.21,74.06Z"/><path class="cls-1" d="M305.1,164.53q-2.36,0-4.88-2.88a13.1,13.1,0,0,1-3.1-5.4,2.71,2.71,0,0,1-.15-.88v-.74a7.16,7.16,0,0,1,1-3.7,3.72,3.72,0,0,1,2.29-1.92,7.13,7.13,0,0,1,2.52-4.14,6.89,6.89,0,0,1,1.92-1,16.6,16.6,0,0,1-8.35-3.62,9.82,9.82,0,0,1-3.77-8.06,11,11,0,0,1,.44-3.11,14.13,14.13,0,0,0,.22-1.62c.05-.59.08-1.13.08-1.63a7.86,7.86,0,0,0-1-4.28,5,5,0,0,1-1.48.29,4.62,4.62,0,0,1-3-1.18,6.55,6.55,0,0,1-2-2.81,8.79,8.79,0,0,1-.45-4.73,6.76,6.76,0,0,0,.15-1.33,8.71,8.71,0,0,0-.74-3.4,2.36,2.36,0,0,0-2.81-1.48c.1-.2.27-.49.52-.89s1-.59,2.15-.59a9.64,9.64,0,0,1,5.76,2.44,12.88,12.88,0,0,1,4.14,5,6.31,6.31,0,0,1,.59,1.78,9.76,9.76,0,0,1,.15,1.62q0,3.25-1.92,4.73a8.64,8.64,0,0,1,1.33,4.44,13.53,13.53,0,0,1,4.95-4,13.25,13.25,0,0,1,5.84-1.48,5,5,0,0,1,4-1.92,4.94,4.94,0,0,1,4.29,2.51,8.07,8.07,0,0,0,1.92.3,4.56,4.56,0,0,0,1.85-.37,1.56,1.56,0,0,0,1-1c.19-.69.51-1,1-1a.75.75,0,0,1,.81.59,4.47,4.47,0,0,1-.22,2.59c-.35,1-1.4,1.65-3.18,1.85a6.87,6.87,0,0,1-2.22-.59,4.46,4.46,0,0,1,.15,1.1v1.26a6.58,6.58,0,0,1-.07,1,7.83,7.83,0,0,0-.08,1.11v.44a3.39,3.39,0,0,0,.82,2.29c.54.64,1.11.77,1.7.37a2.35,2.35,0,0,1,1-.29c.24,0,.27.24.07.74a4,4,0,0,1-3.4,1.92,4.15,4.15,0,0,1-3.69-2.07,8.48,8.48,0,0,1-1.48-3.55,6.34,6.34,0,0,0-1.63-4.06,4.65,4.65,0,0,0-2.51-1.41.29.29,0,0,1-.22-.07.31.31,0,0,0-.22-.07,13.67,13.67,0,0,0-5.62,2.8,9.48,9.48,0,0,0-3.55,5.18,9.28,9.28,0,0,0-.22,1.25,12.61,12.61,0,0,0-.08,1.41,8.23,8.23,0,0,0,3.48,7.09,13.35,13.35,0,0,0,8.06,2.52q6.5,0,13.89-4.66a86.73,86.73,0,0,0,15-12.27,197.85,197.85,0,0,0,15-16.92q7.38-9.32,14-18.78T377,71.7q2.51-3.84,5.91-8.21t7.24-8.79q-7.83-2.66-16-5a127.87,127.87,0,0,0-16.26-3.48,35.53,35.53,0,0,1-1.7,11.61,50.69,50.69,0,0,1-5.25,11.31c1.08-.6,2.14-1.11,3.18-1.56a8.76,8.76,0,0,1,3.47-.66,3.62,3.62,0,0,1,2.07-2.66,8.16,8.16,0,0,1,3.4-.74,7.92,7.92,0,0,1,3.55.74,25.3,25.3,0,0,1,3.84,2.36,6.16,6.16,0,0,1,2.81,4.44,11.19,11.19,0,0,0-1.77-.82,8.7,8.7,0,0,0-3.11-.51,9,9,0,0,0-4.88,1.62,2.94,2.94,0,0,1-1.92.59A3.34,3.34,0,0,1,359,70.74a6.11,6.11,0,0,1-1.4-2.44,14,14,0,0,0-7.69,3.4,2.36,2.36,0,0,1-.74.29,74.05,74.05,0,0,1-14.33,16.12,62.7,62.7,0,0,1-16.41,10.35,45.39,45.39,0,0,1-8.72,2.73A40.27,40.27,0,0,1,302,102q-9.92,0-15.23-5.61a19.29,19.29,0,0,1-5.32-13.75,30.16,30.16,0,0,1,3.48-13.38,43.12,43.12,0,0,1,10.86-13.38,60.9,60.9,0,0,1,14.93-9.24,81.83,81.83,0,0,1,16.93-5.32,60,60,0,0,1,16.18-1.11,83.8,83.8,0,0,1,11.24,1.33,27.4,27.4,0,0,0-3.85-9.61,25.41,25.41,0,0,0-12.41-9.46,4.44,4.44,0,0,0-3.4,1,6.77,6.77,0,0,0-1.78,2.22,6.3,6.3,0,0,0-.74,2.8c0,1.19.4,1.93,1.19,2.22.49.1.74.3.74.59s-.5.59-1.48.59a5.63,5.63,0,0,1-2.66-.81,2.85,2.85,0,0,1-1.48-2.73A5.56,5.56,0,0,1,331.64,24,9.28,9.28,0,0,1,337,21.88h.15a47.8,47.8,0,0,0-17.44-1.77l-2.29.29a14.89,14.89,0,0,0-2.15.45l-1,.15a1.38,1.38,0,0,0-.59.14l-.59.3A9.42,9.42,0,0,0,310,23.21a4.79,4.79,0,0,0-1.33,3.55c0,1.68.69,2.66,2.07,3,.49.1.74.32.74.66s-.25.57-.74.67a2,2,0,0,1-.89.15,3,3,0,0,1-2.21-.89,4,4,0,0,1-.89-1.26,6.72,6.72,0,0,1-.44-1.25l-.45.73a21.52,21.52,0,0,1-2.66,3.18,20.9,20.9,0,0,1-4.43,3.48,9.94,9.94,0,0,1-5,1.48A5,5,0,0,1,289,33.86a.61.61,0,0,1-.15-.45c0-.19.15-.29.45-.29a5.22,5.22,0,0,1,.88.07,6.29,6.29,0,0,0,1,.08,4.67,4.67,0,0,0,3.18-1.48,8.34,8.34,0,0,0,2.14-3.11,35.16,35.16,0,0,1,3.1-6.58,11.07,11.07,0,0,1,4.29-4.36,9.31,9.31,0,0,1,4.14-1,7.61,7.61,0,0,1,5.62,2.22,16.25,16.25,0,0,1,2.81-.67c1-.15,2-.27,2.95-.37a17.73,17.73,0,0,1,2.22-.15h2.07A42.81,42.81,0,0,1,341,20.92a26.37,26.37,0,0,1,11.24,8.8,24.09,24.09,0,0,1,3.47,5.91A31.88,31.88,0,0,1,357.58,42,158.32,158.32,0,0,1,375,46.57q8.66,2.81,17.22,5.91,3.4-3.69,7-7t7.32-6.13A25.66,25.66,0,0,1,414.79,35a27.58,27.58,0,0,1,7.54-1.18,16.25,16.25,0,0,1,6.28,1q2.44,1,2.88,2.37l-.74.44a7.35,7.35,0,0,0-2.88-1.92,11.77,11.77,0,0,0-4.36-.74,21.58,21.58,0,0,0-6.95,1.4,33.47,33.47,0,0,0-8.72,5,42,42,0,0,0-5.47,5.17q-3,3.26-6.21,7.54,6.79,2.51,13.23,5t12.49,4.51a75.2,75.2,0,0,0,10.28,2.73,43.92,43.92,0,0,0,7.76.82q6.06,0,9.31-1.85a12.54,12.54,0,0,0,4.66-4.14,20.3,20.3,0,0,0,1.85-3.62l2.06.59a14.36,14.36,0,0,1-7.53,9.09q-3.7,2-10.2,2a47,47,0,0,1-8.28-.82,79,79,0,0,1-10.5-2.73q-6.36-2.07-13-4.58t-13.6-4.88q-4.87,6.8-9.9,14.71t-9.46,15.22q-4.44,7.32-7.83,12.64a158.3,158.3,0,0,1-17.67,23.36,81.16,81.16,0,0,1-20,16.18,43.24,43.24,0,0,1-21.88,5.7,8.71,8.71,0,0,0-2.14.59,7,7,0,0,0-2,1.18,6.59,6.59,0,0,0-2.51,3.25,4.34,4.34,0,0,1,3,1.33,4,4,0,0,1,1.4,3v.88a11,11,0,0,1-.22,2.44c-.14.64-.32,1.26-.51,1.85a5.5,5.5,0,0,0-.3,1.78,4.82,4.82,0,0,0,.52,2.21,2.07,2.07,0,0,0,1.7,1.19,6.11,6.11,0,0,0-.45.51C306.23,164.41,305.79,164.53,305.1,164.53Zm-1.33-65a27,27,0,0,0,6.06-.74,45.71,45.71,0,0,0,6.95-2.22c.59-.19,1.23-.39,1.92-.59a4,4,0,0,0,1.78-1l.14-.15A23.89,23.89,0,0,0,325.8,90a14.23,14.23,0,0,0,3.25-6,5.91,5.91,0,0,1-4.51-1.7,7.63,7.63,0,0,1-2.44-4.21c-.1-.6-.17-1.14-.22-1.63a14.52,14.52,0,0,1-.07-1.48,11.15,11.15,0,0,1,.22-2.36c.15-.69.32-1.38.52-2.07a7.38,7.38,0,0,0,.14-1.78,8.67,8.67,0,0,0-.88-3.77,3.05,3.05,0,0,0-3-1.85,6.53,6.53,0,0,1,.74-1,2.91,2.91,0,0,1,2.22-.66,8.86,8.86,0,0,1,4.95,1.77,22.27,22.27,0,0,1,4.66,4.36,15.28,15.28,0,0,1,2.8,5.1,13.89,13.89,0,0,1,.45,3.4,9.41,9.41,0,0,1-1.18,4.73,6.18,6.18,0,0,1-3,2.81h-.15a6.51,6.51,0,0,1-1,3.62,25.19,25.19,0,0,1-2.66,3.92,79.66,79.66,0,0,0,14-12.34,69.18,69.18,0,0,0,10.86-15.82A35.25,35.25,0,0,0,355.51,46c-2.07-.2-4.12-.37-6.13-.52s-4.07-.22-6.14-.22a69.46,69.46,0,0,0-14.85,2.07A71.51,71.51,0,0,0,313,53a52.21,52.21,0,0,0-13.08,9.24,35.9,35.9,0,0,0-8,11.16,27.8,27.8,0,0,0-2.66,11.31,15.65,15.65,0,0,0,3.62,10.49Q296.52,99.49,303.77,99.49Z"/><path class="cls-1" d="M401.93,129.35q-8.13,0-8.13-8.13a15.29,15.29,0,0,1,2.29-7.1,75,75,0,0,1,5.54-8.5q3.25-4.35,6.21-7.9c2-2.37,3.45-4.09,4.43-5.18q4.44-5.33,4.44-7.54,0-1.62-1.92-1.62A6.91,6.91,0,0,0,412,84a32.87,32.87,0,0,0-11.09,7.09A90.89,90.89,0,0,0,390.17,103a150.83,150.83,0,0,0-9.09,13.38q-4,6.66-6.35,11.53c-.1.3-.62.52-1.55.67a20.59,20.59,0,0,1-3,.22,14,14,0,0,1-2.58-.22c-.74-.15-1.11-.37-1.11-.67q5.32-9.75,9.9-17.81t10.42-17.81q5.85-9.77,12.2-19.52,5.17-8,10.64-16a128.34,128.34,0,0,1,12.05-15,62.57,62.57,0,0,1,15-11.75,22.9,22.9,0,0,1,5.83-2.58,18.23,18.23,0,0,1,4.51-.67,12,12,0,0,1,3.4.44c2.27.6,3.4,2.32,3.4,5.18A21.87,21.87,0,0,1,452,40.14,50.52,50.52,0,0,1,447.46,49a68.64,68.64,0,0,1-5.77,7.76A77.1,77.1,0,0,1,426,70.29a64,64,0,0,1-13.82,6.8q-6.13,2-9.39,2.74c-.79,1.09-1.92,2.73-3.4,5s-3.1,4.61-4.87,7.17a8.23,8.23,0,0,0-1.48,2.51c0,.1.19,0,.59-.22A7.68,7.68,0,0,0,395,93.13,84,84,0,0,1,403,86a33.27,33.27,0,0,1,8.5-4.88,17.25,17.25,0,0,1,6.2-1.18A11.91,11.91,0,0,1,423,81.09a3.74,3.74,0,0,1,2.29,3.62q0,2.22-2.21,5.32-1.94,2.52-5.4,7.24t-7.1,10a115.55,115.55,0,0,0-6.13,10c-1.68,3.11-2.51,5.45-2.51,7s.68,2.22,2.07,2.22a12,12,0,0,0,6.57-2.44,51,51,0,0,0,7.32-6.06,83.41,83.41,0,0,0,11.53-14.12,2.45,2.45,0,0,1,1-.29c1,0,1.23.54.74,1.62a82.39,82.39,0,0,1-9.61,12.42,50.65,50.65,0,0,1-10.28,8.58A18.34,18.34,0,0,1,401.93,129.35ZM404.74,77a44.49,44.49,0,0,0,7.9-2.81,69.76,69.76,0,0,0,11.53-6.65,76.22,76.22,0,0,0,13.09-11.83q2.65-3,6.13-7.39a44.62,44.62,0,0,0,5.25-8.13,34.14,34.14,0,0,0,1.7-4.51,12,12,0,0,0,.52-3c0-1.77-.79-2.66-2.37-2.66a12.19,12.19,0,0,0-5.91,2.15,42.39,42.39,0,0,0-6.36,4.65,103.1,103.1,0,0,0-9.61,10.13q-5,6-9.53,12.19t-7.84,11.09C407,73.47,405.52,75.74,404.74,77Z"/><path class="cls-1" d="M438.29,129.94a12.58,12.58,0,0,1-6.28-1.62,10.1,10.1,0,0,1-4.36-5.33,16.76,16.76,0,0,1-1-6.35,29.49,29.49,0,0,1,1.78-9.91,44.07,44.07,0,0,1,7.53-13.82,40.1,40.1,0,0,1,10.87-9.46,23.86,23.86,0,0,1,12-3.47q5.46,0,8,3a11.29,11.29,0,0,1,2.51,7.54,25.78,25.78,0,0,1-.66,5.62A54.69,54.69,0,0,1,467,102a31.87,31.87,0,0,1-3.85,7.54q-2.36,3.4-4,5.32a7.21,7.21,0,0,0,6.73.23,19.89,19.89,0,0,0,6.43-4.74,41.07,41.07,0,0,0,4.73-6,1.35,1.35,0,0,1,.81-.74,3.36,3.36,0,0,1,.67-.15c1,0,1.18.59.59,1.77q-4.87,8-10.79,11.17t-10.5.37l-.29.44a45.35,45.35,0,0,1-4.88,6,25,25,0,0,1-5.91,4.5,19.71,19.71,0,0,1-4.14,1.63A16.83,16.83,0,0,1,438.29,129.94Zm1.33-2.51a14,14,0,0,0,6.65-1.92,25.64,25.64,0,0,0,5.69-4.44,39.59,39.59,0,0,0,4.22-5,6.51,6.51,0,0,1-2.81-2.74,9.55,9.55,0,0,1-1.18-5,20.58,20.58,0,0,1,1.25-6.73A17.54,17.54,0,0,1,457,95.5a6.79,6.79,0,0,1,5.1-2.51,4.48,4.48,0,0,1,2.88.88,2.6,2.6,0,0,1,1.11,2.07,10.42,10.42,0,0,0,.52-2.22,21.57,21.57,0,0,0,.22-3.25q0-3.84-1.48-5.54a5,5,0,0,0-4-1.7,8.17,8.17,0,0,0-2.14.3,23.17,23.17,0,0,0-2.29.73q-5.48,2.22-11.17,8.28A42.82,42.82,0,0,0,437.11,106a58.54,58.54,0,0,0-2.22,7,29.63,29.63,0,0,0-1,7.39q0,3.86,1.7,5.47A5.67,5.67,0,0,0,439.62,127.43Zm22.91-55c-.79,0-1-.45-.74-1.33a11.83,11.83,0,0,1,3.26-4.73,6.31,6.31,0,0,0,2.07-5,4.07,4.07,0,0,0-.67-2.22,2.53,2.53,0,0,0-2.29-1,7.52,7.52,0,0,0-3.84.74c-.79.49-1.53.94-2.22,1.33H458a.7.7,0,0,1-.66-.52.94.94,0,0,1,.07-1,10.77,10.77,0,0,1,4.14-3.1,13.26,13.26,0,0,1,5.76-1.33,4.86,4.86,0,0,1,5.47,5.17,7.83,7.83,0,0,1-.59,3,8.34,8.34,0,0,1-2.22,2.88,44.73,44.73,0,0,0-6.06,5.77,3.62,3.62,0,0,1-.44.88A1,1,0,0,1,462.53,72.44Zm8.58,12.12a20.18,20.18,0,0,1-3.77-.3,10.37,10.37,0,0,1-2.74-.88c-.79-.3-1.18-.64-1.18-1,0-.59.39-.78,1.18-.59a10,10,0,0,0,2.07.44,17.73,17.73,0,0,0,2.22.15c2.26,0,3.82-.39,4.66-1.18a3.75,3.75,0,0,0,1.25-2.81,8.28,8.28,0,0,0-.74-3.1,4.19,4.19,0,0,1-.29-.82,3.92,3.92,0,0,1-.15-1.11c0-1.18.49-1.77,1.48-1.77s2,.74,2.81,2.22a11.12,11.12,0,0,1,1.33,4.88,5.17,5.17,0,0,1-2.07,4.28Q475.1,84.57,471.11,84.56Z"/><path class="cls-1" d="M493.72,144q7.54-.3,16.19-5.62a110.94,110.94,0,0,0,18-14.19q9.32-8.88,19.07-19.66l-1.63.44h-1a10.6,10.6,0,0,1-1.78-.15,3.42,3.42,0,0,1-1.62-.74c-.7,1.18-2,1.78-4,1.78a9.76,9.76,0,0,1-1.62-.15,4.75,4.75,0,0,1-1.63-.59,12.35,12.35,0,0,1-4.06-3.62,8.12,8.12,0,0,1-2-4.81c0-1.08.2-1.75.59-2a2.27,2.27,0,0,1,.74-.37,2.24,2.24,0,0,0,1.33,2.29,5.87,5.87,0,0,0,2.81.81,8.35,8.35,0,0,0,1-.07,9.23,9.23,0,0,1,1.18-.08,7.23,7.23,0,0,1,3,.59,5.35,5.35,0,0,1,2.67,2.22,3.58,3.58,0,0,1,.44,3.25l1,.37a3.34,3.34,0,0,0,1.19.22,8.12,8.12,0,0,0,1.92-.29,7.74,7.74,0,0,0,1.85-.59,8.38,8.38,0,0,0,1.7-1q8.26-9.16,16.4-18.62-1.77-9.9-4.36-19.15a74.72,74.72,0,0,0-6.65-16.48,33.54,33.54,0,0,0-10.35-11.53q-6.28-4.29-15.59-4.29a23.31,23.31,0,0,0-10.72,2.52,22.41,22.41,0,0,0-8.2,7,20.66,20.66,0,0,0-3.7,10.86.46.46,0,0,1,.3-.14,8.63,8.63,0,0,0,2.51,2.66,5.9,5.9,0,0,0,3.4,1.48,1.57,1.57,0,0,0,1.18-.45,1.73,1.73,0,0,1,1.19-.59.78.78,0,0,1,.88.89,3.73,3.73,0,0,1-.88,2.21,3.13,3.13,0,0,1-2.67,1.19,5.28,5.28,0,0,1-2.36-.59A6.78,6.78,0,0,1,507,56.62,11,11,0,0,1,505.69,54v1.26a7,7,0,0,0,.15,1.4,26.65,26.65,0,0,0,4.21,11.9,29.71,29.71,0,0,0,9.39,9.31,23.37,23.37,0,0,0,12.71,3.63h1.48a5.41,5.41,0,0,0,1.33-.15,11.22,11.22,0,0,0,1.26-.08,8.27,8.27,0,0,0,1.26-.22A8.76,8.76,0,0,0,541,79.09a7.24,7.24,0,0,0,1.92-2.37,4.62,4.62,0,0,1-3.25-1.92,5.86,5.86,0,0,1-1.18-3.54,7.72,7.72,0,0,1,.74-3.7c.49-.89.93-1.67,1.33-2.37.2-.49.39-1,.59-1.55a4.87,4.87,0,0,0,.3-1.7A5.05,5.05,0,0,0,541.1,60a2.11,2.11,0,0,0-1.55-1.18,2.76,2.76,0,0,1,1.77-.59,4.63,4.63,0,0,1,2.88,1,11.09,11.09,0,0,1,1.85,1.7,12.36,12.36,0,0,1,2,4.21,16.93,16.93,0,0,1,.66,4.36,8.66,8.66,0,0,1-1.55,4.73,5.86,5.86,0,0,1-3,2.37,9.14,9.14,0,0,1-3.55,5,10.6,10.6,0,0,1-5.77,1.78h-1A28.55,28.55,0,0,1,522.18,82a27,27,0,0,1-9.09-5.25,5,5,0,0,1,.29,1.34,8.57,8.57,0,0,1-1.33,6.06,5.21,5.21,0,0,1,.74,2.81,8.54,8.54,0,0,1-.89,3.54,9.09,9.09,0,0,1-2.81,3.4A12.29,12.29,0,0,1,504.66,96a19.23,19.23,0,0,1-5.32.81q-3.7,0-5.32-1.63a2.91,2.91,0,0,1-1-1.55c-.05-.44,0-.71.07-.81a2.55,2.55,0,0,0,1.63.59,3.86,3.86,0,0,0,2.88-1.33,10,10,0,0,0,1.85-2.66c.39-.79.81-1.68,1.25-2.66a8.74,8.74,0,0,1,2.44-3,6.89,6.89,0,0,1,4.58-1.77,8.11,8.11,0,0,1,1.85.22,2.71,2.71,0,0,1,1.55,1,8.82,8.82,0,0,0,.59-5.32,14.68,14.68,0,0,0-.81-2.59A11.18,11.18,0,0,0,509.69,73a34.73,34.73,0,0,1-4.22-7.54,27.1,27.1,0,0,1-2-8.57,13.47,13.47,0,0,1-.15-1.93V53.22a32.17,32.17,0,0,1,2.36-12.56,27.66,27.66,0,0,1,6.21-9.32,11.1,11.1,0,0,1-3.25.45,5.78,5.78,0,0,1-3.1-.74,3.82,3.82,0,0,1-1.93-3.7,5.14,5.14,0,0,1,1-3.25,1.19,1.19,0,0,1,.74-.44c.29,0,.44.54.44,1.62s.91,1.85,2.74,2.59A13.3,13.3,0,0,0,513.53,29a3,3,0,0,0,1.18-.15h.3a27.85,27.85,0,0,1,16.26-5q9.9,0,16.55,4.51a34.25,34.25,0,0,1,10.87,12.27A76.7,76.7,0,0,1,565.41,58q2.52,9.68,4.29,20.17,9.46-11.08,18.85-21.43T607,38a115.35,115.35,0,0,1,17.59-13.68q8.49-5.24,16.18-6a15,15,0,0,1,1.93-.14h1.62q8.43,0,12.12,3.62t3.7,7.61a9.27,9.27,0,0,1-1.48,5.1,7.7,7.7,0,0,1-4,3.18l-.44-1.63a6.5,6.5,0,0,0,3.54-5.91,7.55,7.55,0,0,0-2.58-5.47q-2.6-2.51-7.76-2.51a23.86,23.86,0,0,0-6.06.89q-7,1.92-15.23,7.76A159.39,159.39,0,0,0,608.8,45.24q-9.09,8.58-18.7,18.7T570.74,84.71q1.77,11.67,3.47,22.76a106.36,106.36,0,0,0,4.66,19.44q3,8.35,8.27,12.2a7,7,0,0,0,4.29,1.33,8,8,0,0,0,5.47-2.29c1.68-1.53,2.51-3.87,2.51-7V130a5,5,0,0,0-.14-1.1h2.07a5.21,5.21,0,0,1,.14,1.18v1.18q0,6.06-3.77,9.39a12,12,0,0,1-8.05,3.33,10.59,10.59,0,0,1-6.51-2.22Q578,137.48,575,129.35a111,111,0,0,1-4.8-18.63q-1.85-10.48-3.77-21.43-5.91,6.36-11.83,12.64t-11.68,11.9a6.64,6.64,0,0,0-.59,3,7,7,0,0,0,.45,2.51,1.8,1.8,0,0,0,1.33,1.33c.69.1,1,.34,1,.74a1,1,0,0,1-.44.88,2.65,2.65,0,0,1-1.63.45,3,3,0,0,1-1.84-.74,3.74,3.74,0,0,1-1.26-2.51l-.15-.6a2.92,2.92,0,0,1,.3-1.33,6,6,0,0,0,.44-1.18q-8.87,8.58-17.22,15.45a94.26,94.26,0,0,1-15.82,10.79q-7.47,3.91-13.82,3.92Z"/><path class="cls-1" d="M610.35,128.76a7.29,7.29,0,0,1-6.36-3.18,14.08,14.08,0,0,1-2.21-8.2,34.42,34.42,0,0,1,3-12.72,35.71,35.71,0,0,1,4.88-8.2,51,51,0,0,1,7.54-7.83,40.86,40.86,0,0,1,9.24-5.92,24,24,0,0,1,10.13-2.29q4,0,5.46,2.07a8.41,8.41,0,0,1,1.48,5,20,20,0,0,1-.88,5.76l8.27-12.56c.69-.5,2.22-.74,4.59-.74a21.85,21.85,0,0,1,5.1.59c1.62.39,2.09,1,1.4,1.77q-1.19,1.48-4.06,4.51T651.67,94a103.54,103.54,0,0,0-6.29,8.72q-1.47,2.52-4.36,7.39a57,57,0,0,0-4.5,9.32,14.07,14.07,0,0,0-.89,4.28c0,2.07.89,3.11,2.66,3.11a10.72,10.72,0,0,0,4-1.11,21.58,21.58,0,0,0,4.88-3,40.48,40.48,0,0,0,8.28-9.24q3.54-5.4,6.35-9.54a3.19,3.19,0,0,1,.37-.29,1.58,1.58,0,0,1,.82-.15,1,1,0,0,1,.88.52c.2.34.1.76-.29,1.25q-4.14,6.21-8.13,11.61a45,45,0,0,1-8.13,8.65,14.29,14.29,0,0,1-9,3.25,8.34,8.34,0,0,1-6.14-2.29,8.53,8.53,0,0,1-2.29-6.29,20.06,20.06,0,0,1,.37-3.69,24.41,24.41,0,0,1,1-3.55,86.53,86.53,0,0,1-5.83,6.8A46.32,46.32,0,0,1,618,126.1,13.5,13.5,0,0,1,610.35,128.76Zm1.33-2.81a11,11,0,0,0,6.28-2.37,41.77,41.77,0,0,0,6.73-6.13,65.15,65.15,0,0,0,6.21-8.06c1.57-2.36,3.13-4.87,4.65-7.53A65,65,0,0,0,639.4,94a18.88,18.88,0,0,0,1.55-7q0-4.72-3.4-4.73a10.27,10.27,0,0,0-5.47,2.07,40.13,40.13,0,0,0-6.28,5.32,61.9,61.9,0,0,0-5.91,7,43.33,43.33,0,0,0-4.37,7.31l-2.14,4.29c-1.13,2.27-2.22,4.73-3.25,7.39a19.53,19.53,0,0,0-1.55,7Q608.58,126,611.68,126Z"/><path class="cls-1" d="M697.12,129.94a8.68,8.68,0,0,1-6.06-2.29,8.44,8.44,0,0,1-2.51-6.58,22.77,22.77,0,0,1,3-10.72,94.83,94.83,0,0,1,7-11q4-5.46,6.95-10A9.93,9.93,0,0,0,707,84.71q0-2.07-1.92-2.07-1.49,0-4.44,1.85a49.32,49.32,0,0,0-7.54,6.28,91.73,91.73,0,0,0-8.5,9.83q-4.07,5.4-7.39,10.72c-2.22,3.54-4.14,6.8-5.76,9.75s-2.84,5.23-3.63,6.8a8.62,8.62,0,0,1-2.58.59q-1.56.15-3.18.15a17.14,17.14,0,0,1-4.88-.44q1.92-2.67,5.1-7.39T669,110.5q3.54-5.53,6.5-10.42c1.08-1.87,2.27-3.89,3.55-6.06s2.36-4.21,3.25-6.13a11.73,11.73,0,0,0,1.33-4.36c0-1-.39-1.48-1.18-1.48a3.83,3.83,0,0,0-1.92.74,9.87,9.87,0,0,0-2.22,1.92,65.87,65.87,0,0,0-5.69,6.87q-3.48,4.67-9.09,13.67a1.58,1.58,0,0,1-1.48.74c-.79,0-1-.54-.59-1.62q2.65-4.29,5.47-8.65t5.61-8.2a44.33,44.33,0,0,1,5.55-6.14,8.25,8.25,0,0,1,5.54-2.29A5.1,5.1,0,0,1,688,81a7.11,7.11,0,0,1,1.48,4.44A18.59,18.59,0,0,1,688.1,92c.4-.39.77-.79,1.11-1.18s.72-.79,1.11-1.18a39.68,39.68,0,0,1,10.13-8.06,19.33,19.33,0,0,1,8.65-2.59,7.87,7.87,0,0,1,4.8,1.48,4.73,4.73,0,0,1,2,4,16.51,16.51,0,0,1-2.07,7.1,62.19,62.19,0,0,1-4.66,7.83c-1.72,2.47-3.13,4.39-4.21,5.77q-1,1.47-4,5.39a51.23,51.23,0,0,0-5,8.06,12.73,12.73,0,0,0-1.4,3.18,10,10,0,0,0-.37,2.58q0,3.41,3.1,3.4,3.4,0,8.43-4a56.88,56.88,0,0,0,8.2-8A86.81,86.81,0,0,0,722,104.37c.29-.49.59-.76.88-.81a5,5,0,0,1,.6-.08c.68,0,.88.59.59,1.77a130.24,130.24,0,0,1-8.95,12.57A49.2,49.2,0,0,1,705.7,127,15.05,15.05,0,0,1,697.12,129.94Z"/><path class="cls-1" d="M744.28,129.35q-8.13,0-8.13-8.13a15.29,15.29,0,0,1,2.29-7.1,76.44,76.44,0,0,1,5.54-8.5q3.25-4.35,6.21-7.9c2-2.37,3.45-4.09,4.44-5.18q4.43-5.33,4.43-7.54,0-1.62-1.92-1.62a6.91,6.91,0,0,0-2.81.59,32.87,32.87,0,0,0-11.09,7.09A90.84,90.84,0,0,0,732.53,103a150.83,150.83,0,0,0-9.09,13.38q-4,6.66-6.36,11.53c-.1.3-.62.52-1.55.67a20.55,20.55,0,0,1-3,.22,14,14,0,0,1-2.59-.22c-.74-.15-1.11-.37-1.11-.67q5.33-9.75,9.9-17.81t10.43-17.81q5.83-9.77,12.19-19.52,5.17-8,10.64-16a128.34,128.34,0,0,1,12-15A62.57,62.57,0,0,1,779,30a22.8,22.8,0,0,1,5.84-2.58,18.09,18.09,0,0,1,4.5-.67,12,12,0,0,1,3.4.44c2.27.6,3.4,2.32,3.4,5.18a21.87,21.87,0,0,1-1.77,7.76A50.52,50.52,0,0,1,789.81,49,68.64,68.64,0,0,1,784,56.77a77.1,77.1,0,0,1-15.67,13.52,64,64,0,0,1-13.82,6.8q-6.13,2-9.39,2.74c-.78,1.09-1.92,2.73-3.4,5s-3.1,4.61-4.87,7.17a8.23,8.23,0,0,0-1.48,2.51c0,.1.2,0,.59-.22a7.32,7.32,0,0,0,1.33-1.11A84,84,0,0,1,745.39,86a33.44,33.44,0,0,1,8.5-4.88A17.3,17.3,0,0,1,760.1,80a11.87,11.87,0,0,1,5.24,1.11,3.74,3.74,0,0,1,2.29,3.62c0,1.48-.73,3.25-2.21,5.32q-1.92,2.52-5.4,7.24t-7.09,10a115.81,115.81,0,0,0-6.14,10c-1.68,3.11-2.51,5.45-2.51,7s.69,2.22,2.07,2.22a12.1,12.1,0,0,0,6.58-2.44,51.48,51.48,0,0,0,7.31-6.06,77.49,77.49,0,0,0,6.73-7.46,78.48,78.48,0,0,0,4.8-6.66,2.49,2.49,0,0,1,1-.29c1,0,1.23.54.74,1.62a82.39,82.39,0,0,1-9.61,12.42,50.39,50.39,0,0,1-10.28,8.58A18.31,18.31,0,0,1,744.28,129.35ZM747.09,77A44.53,44.53,0,0,0,755,74.21a70.17,70.17,0,0,0,11.53-6.65,76.56,76.56,0,0,0,13.08-11.83q2.65-3,6.13-7.39A44.62,44.62,0,0,0,791,40.21a34.14,34.14,0,0,0,1.7-4.51,12,12,0,0,0,.52-3c0-1.77-.79-2.66-2.37-2.66a12.22,12.22,0,0,0-5.91,2.15,42.39,42.39,0,0,0-6.36,4.65A101.92,101.92,0,0,0,769,46.94q-5,6-9.54,12.19T751.6,70.22C749.38,73.47,747.87,75.74,747.09,77Z"/><path class="cls-1" d="M820.14,15.19a3.43,3.43,0,0,0-1.92-2.55v-.06a3.57,3.57,0,0,0,2.36-3.4,3.4,3.4,0,0,0-1.21-2.66,6.18,6.18,0,0,0-4.15-1,22,22,0,0,0-3.69.35l.26,13.21,2.42-.05-.11-5.5,1.23,0c1.4,0,2,.56,2.45,2.3a19.33,19.33,0,0,0,1,3.14l2.52-.05A26.6,26.6,0,0,1,820.14,15.19Zm-4.62-3.47-1.45,0L814,7.52a6.42,6.42,0,0,1,1.51-.15c1.59,0,2.64.62,2.67,2.09S817.17,11.69,815.52,11.72Z"/><path class="cls-1" d="M828.25,12a12.26,12.26,0,1,0-20.75,9.07A12.26,12.26,0,0,0,828.25,12ZM816.19,22.25A10,10,0,1,1,826,12.06,10,10,0,0,1,816.19,22.25Z"/></g></g></svg>