<svg xmlns="http://www.w3.org/2000/svg" viewBox="0 0 832.12 287.14"><defs><style>.cls-1{fill:#f5f5f5;}</style></defs><g id="Layer_2" data-name="Layer 2"><g id="line"><path class="cls-1" d="M336.25,185.36a1.64,1.64,0,0,1-.84-.28,2.38,2.38,0,0,1-1.22-2c0-1.32.84-2.29,2.53-2.91a7.77,7.77,0,0,1,2.07-.29,23.47,23.47,0,0,1-9.21-7.56,17.85,17.85,0,0,1-3.47-10.66,20.33,20.33,0,0,1,1.12-6.53,25.53,25.53,0,0,1,3.57-6.72,19.67,19.67,0,0,1,3.95-4.23,4.5,4.5,0,0,0,1-2,8.5,8.5,0,0,0,.29-2.07,5.63,5.63,0,0,0-.85-2.91c-.56-.94-1.22-1.28-2-1h-.19c-.32,0-.47-.13-.47-.38s.25-.72.75-1a3.26,3.26,0,0,1,1.88-.66,2.7,2.7,0,0,1,2.21,1.13,4.57,4.57,0,0,1,.89,2.91,7.25,7.25,0,0,1-.42,2.35,6.47,6.47,0,0,1-1.37,2.25,30.35,30.35,0,0,1,6.86-3.71,35.23,35.23,0,0,1,7.8-2c0-.12.16-.19.47-.19a9.12,9.12,0,0,0,2.07-.23,8.59,8.59,0,0,0,2-.71,5.54,5.54,0,0,0,2.73-2.44,3.63,3.63,0,0,1-2.31-1.55,4.73,4.73,0,0,1-.89-2.77,6.77,6.77,0,0,1,.47-2.68c.31-.72.6-1.33.85-1.83.12-.31.25-.67.37-1.08a4.16,4.16,0,0,0,.19-1.27,4,4,0,0,0-.33-1.6,1.64,1.64,0,0,0-1.27-.94,1.12,1.12,0,0,1,.38-.37,1.72,1.72,0,0,1,.94-.19,4.1,4.1,0,0,1,3,1.5,13.26,13.26,0,0,1,2.35,3.53,8.64,8.64,0,0,1,.94,3.61,6.28,6.28,0,0,1-1.17,3.9,4,4,0,0,1-2.58,1.74,6,6,0,0,1-2.73,3.19,32.05,32.05,0,0,1,9.58,1.65,22.33,22.33,0,0,1,8.08,4.74,11.8,11.8,0,0,1,2.54,2.87,19.78,19.78,0,0,1,1.69,3.34,5.65,5.65,0,0,0,1.41,1,9.36,9.36,0,0,0,1.32.56,1.54,1.54,0,0,0,.56.1h.56c1.26,0,1.91-.35,2-1,.12-.31.25-.47.37-.47.44,0,.66.54.66,1.6a2.18,2.18,0,0,1-.7,1.74,2.55,2.55,0,0,1-1.74.61,4.11,4.11,0,0,1-2-.57,4.42,4.42,0,0,1-1.78-1.4,14,14,0,0,1,.28,2.81,10.57,10.57,0,0,1-1.5,5.64,6.3,6.3,0,0,1-.52,3.24,5.15,5.15,0,0,1-3,2.59,7.06,7.06,0,0,1-2.54.47,11.66,11.66,0,0,1-2.81-.38,21.63,21.63,0,0,1-2.92-.94,5.53,5.53,0,0,0-1.78-.28,3.13,3.13,0,0,0-2.82,1.13c-.25.44-.44.75-.56.94s-.25.09-.38-.29a2.64,2.64,0,0,1-.28-1.22,3.82,3.82,0,0,1,1.6-3,8.38,8.38,0,0,1,3.24-1.51,14.76,14.76,0,0,1,3.43-.47,6.1,6.1,0,0,1,.8,0,3.88,3.88,0,0,1,.61.14,1,1,0,0,1,.32,0,.93.93,0,0,0,.24.05,1.54,1.54,0,0,1-.66-1.32,2.56,2.56,0,0,1,.85-2.16.52.52,0,0,1,.37-.19.37.37,0,0,1,.38.24.53.53,0,0,1-.1.51,1.39,1.39,0,0,0-.18.75,2,2,0,0,0,.94,1.65,3.08,3.08,0,0,0,2.16.61,7.28,7.28,0,0,0,2.25-.85v-.09a9,9,0,0,0,1.6-5.17A13,13,0,0,0,377,149a14.22,14.22,0,0,0-3.62-4.84,20.19,20.19,0,0,0-7-4,25.9,25.9,0,0,0-8.27-1.32,31.89,31.89,0,0,0-12.31,2.49,26.86,26.86,0,0,0-10,6.91,12.08,12.08,0,0,1,1.41-.28,8.38,8.38,0,0,1,1.32-.1h.94a2.47,2.47,0,0,1,.94.19,3.93,3.93,0,0,1,2.91-1,6.67,6.67,0,0,1,4.42,1.78,10.17,10.17,0,0,1,2.44,3.57,11.18,11.18,0,0,1,1,4.51,5.08,5.08,0,0,1-.56,2.44,1.57,1.57,0,0,1-.85.8,2.4,2.4,0,0,1-.66.14,2.94,2.94,0,0,0,.19-.94,2.6,2.6,0,0,0-1.22-2.11,5.81,5.81,0,0,0-2.25-1.08c-.63-.13-1.3-.3-2-.52a8.53,8.53,0,0,1-2.4-1.27,4.33,4.33,0,0,1-1.46-1.73,5,5,0,0,1-.51-2.12,3.75,3.75,0,0,1,.28-1.5c-.25-.06-.49-.11-.71-.14a5.83,5.83,0,0,0-.79-.05,7.33,7.33,0,0,0-4.14,1.6,20.75,20.75,0,0,0-3,6,20.17,20.17,0,0,0-.94,6A17.05,17.05,0,0,0,332.5,171a19.13,19.13,0,0,0,6.57,6.67,23.69,23.69,0,0,0,9.87,3.29c1.81.18,3.57.28,5.26.28a40.27,40.27,0,0,0,8.64-.89,35.91,35.91,0,0,0,7.61-2.59h-.37a5.88,5.88,0,0,1-3.57-1.17,3.4,3.4,0,0,1-1.6-2.77,1.92,1.92,0,0,1,.94-1.84,3.6,3.6,0,0,1,1.69-.51,1,1,0,0,1,.75.23c.13.16,0,.36-.47.61a1.48,1.48,0,0,0-.66,1.41,3.16,3.16,0,0,0,.57,1.79,6,6,0,0,0,1.27,1.27,2.91,2.91,0,0,0,2.11.61,45.63,45.63,0,0,0,13.06-9.59,107,107,0,0,0,10.71-13.24q5-7.25,9.86-14.38,4.71-6.85,9.78-13.25a54,54,0,0,1,10.71-10.42q-5.55-1.89-11.14-3.67a77.64,77.64,0,0,0-11.41-2.72,12.27,12.27,0,0,0-1.93-.24c-.66,0-1.3-.08-1.92-.14a8.2,8.2,0,0,0-3.11,1.41,6.65,6.65,0,0,0-1.87,1.88,2.62,2.62,0,0,1,1.12,2.35A3.75,3.75,0,0,1,394,118a7,7,0,0,1-1.64,1.41,13.65,13.65,0,0,1-1.46.75,7.9,7.9,0,0,0-1.45,1.13,2.24,2.24,0,0,0-.8,1.69,1.28,1.28,0,0,0,.37.94.2.2,0,0,0-.14,0,.16.16,0,0,1-.14.05,1.57,1.57,0,0,1-1-.56,4.65,4.65,0,0,1-1-3.38,11.48,11.48,0,0,1,.37-2.87,7.61,7.61,0,0,1,1-2.4,5.15,5.15,0,0,1,4.14-2.34,3.39,3.39,0,0,1,1,.18,4.59,4.59,0,0,1,1.46-1.78,8.76,8.76,0,0,1,2.21-1.22A30.54,30.54,0,0,0,386.19,111a20.59,20.59,0,0,0-7.47,4.23,17.43,17.43,0,0,0-4.32,5.92,16,16,0,0,0-1.41,6.43,12.71,12.71,0,0,0,2.91,8.27,10.07,10.07,0,0,0,8.27,3.57,13.73,13.73,0,0,0,6.48-1.64,15.21,15.21,0,0,0,5.22-4.56,11.63,11.63,0,0,0,2.2-6.67,7.25,7.25,0,0,0-.28-1.36,2.1,2.1,0,0,0-.47-.9,2.66,2.66,0,0,0-2.25-1.12,1.29,1.29,0,0,0-.94.28.58.58,0,0,1-.38.19c-.19,0-.28-.13-.28-.38a1.4,1.4,0,0,1,.28-.85,2.61,2.61,0,0,1,2.35-1.5,2.8,2.8,0,0,1,2.63,2.07,5,5,0,0,1,.38,2.16v.56a1.9,1.9,0,0,1-.1.57q0,.93-.09,1.83a16.6,16.6,0,0,1-.28,1.74,5.59,5.59,0,0,1,.65-.57,3.23,3.23,0,0,1,1.79-.56,2.4,2.4,0,0,1,1.6.56,2,2,0,0,1,.65,1.6,1.29,1.29,0,0,1-.28,1c-.18.15-.34,0-.47-.33s-.62-.75-1.5-.75a3.43,3.43,0,0,0-.56,0c-.19,0-.38.08-.57.14a4.16,4.16,0,0,0-1.5.94,6.44,6.44,0,0,0-1.41,1.88,14,14,0,0,1-5.5,5.08,15.52,15.52,0,0,1-7.28,1.78,16,16,0,0,1-8.22-2,13.06,13.06,0,0,1-5-5.22,14.79,14.79,0,0,1-1.69-6.9,17.46,17.46,0,0,1,2.87-9.3A19.14,19.14,0,0,1,381,110a2.7,2.7,0,0,1-1.22-.28,5.89,5.89,0,0,1-3-2c-.25.06-.52.14-.8.23a2.65,2.65,0,0,1-.9.14,5.89,5.89,0,0,1-2.25-.51,7.1,7.1,0,0,1-2.25-1.55,10.07,10.07,0,0,1-1.93-3.34,11.59,11.59,0,0,1-.8-4.09,5.93,5.93,0,0,1,.19-1.5,3.07,3.07,0,0,1,.56-1.22c.31-.5.63-.77.94-.8a.92.92,0,0,1,.57,0,1.5,1.5,0,0,0-.29.94,2.63,2.63,0,0,0,1.08,2,4.63,4.63,0,0,0,2,1.13c.57.19,1.19.41,1.88.66a6.62,6.62,0,0,1,2.16,1.41,4.53,4.53,0,0,1,1.6,3.57,3.34,3.34,0,0,1-1,2.44,6.71,6.71,0,0,0,2.91,1.5,10,10,0,0,0,1.79.24,11.54,11.54,0,0,0,1.78,0,32.11,32.11,0,0,1,9.58-1.32,48.35,48.35,0,0,1,7.24.57,103.56,103.56,0,0,1,12.92,3q7,2.07,13.1,4.14a28.78,28.78,0,0,1,5.59-2.54,18.92,18.92,0,0,1,5.87-.94,6.15,6.15,0,0,1,4,1.13,3.22,3.22,0,0,1,1.36,2.44,3.36,3.36,0,0,1-1.55,2.68,8.06,8.06,0,0,1-4.84,1.17,18,18,0,0,1-2.44-.18q-1.32-.19-2.91-.57c-.51-.12-1-.26-1.51-.42s-1-.33-1.5-.52a52.33,52.33,0,0,0-7.23,7.61q-3.48,4.42-6.21,8.65t-4.32,6.86v.09h19.73q4.14-5.82,9-11.7T449.75,118a117,117,0,0,1,10-9.39,61.41,61.41,0,0,1,9.16-6.44,15.65,15.65,0,0,1,7.24-2.35,4.78,4.78,0,0,1,3.1,1c.81.66,1.13,1.89.94,3.71H479a2.19,2.19,0,0,1,0-.42,2.37,2.37,0,0,0,.05-.43,2.46,2.46,0,0,0-.75-2,2.79,2.79,0,0,0-1.79-.61c-1.75,0-3.9.87-6.43,2.59a58.37,58.37,0,0,0-8.13,6.86q-4.32,4.28-8.64,9.3t-8.13,10q-3.81,4.92-6.62,8.87c-1.88,2.63-3.23,4.61-4,5.92-2.2,3.64-4.15,7.13-5.88,10.48a74.22,74.22,0,0,0-3.89,8.69c-.32,1-.57,1.86-.76,2.58a7.85,7.85,0,0,0-.28,1.84c0,1.06.41,1.59,1.22,1.59a9.1,9.1,0,0,0,3.48-1.31,24.37,24.37,0,0,0,5.59-4.18,34.77,34.77,0,0,0,3.43-3.81l.66.66q-2.64,3.19-5.26,5.87a19.24,19.24,0,0,1-6.58,4.28,12.14,12.14,0,0,1-1.79.56,7.64,7.64,0,0,1-1.59.19,3.82,3.82,0,0,1-3.2-1.46,6,6,0,0,1-1.12-3.8q0-4,3.1-10.57a98.71,98.71,0,0,1,8.26-14H410.29a160.56,160.56,0,0,1-10.57,15.41,85.23,85.23,0,0,1-12.5,13.06,55.22,55.22,0,0,1-14.94,9,47.07,47.07,0,0,1-17.8,3.29q-2.82,0-5.92-.28a37.49,37.49,0,0,1-7.33-1.69,3.47,3.47,0,0,0-1.88.14,5.11,5.11,0,0,0-1.41.7,4.67,4.67,0,0,0-1.41,1.51,1.29,1.29,0,0,0-.09,1.4l.19.38C336.63,185.27,336.5,185.36,336.25,185.36ZM438.66,117.9a4.4,4.4,0,0,0,2.54-.84,2.18,2.18,0,0,0,.94-1.69,1.84,1.84,0,0,0-.9-1.5,5.07,5.07,0,0,0-3-.66,10.77,10.77,0,0,0-3.94,1,23.52,23.52,0,0,0-4,2.4,28.24,28.24,0,0,0,4,1A26.94,26.94,0,0,0,438.66,117.9Z"/><path class="cls-1" d="M447.12,170.05a8,8,0,0,1-4-1,6.41,6.41,0,0,1-2.77-3.38,10.63,10.63,0,0,1-.66-4,18.88,18.88,0,0,1,1.13-6.29,28.29,28.29,0,0,1,4.79-8.79,25.41,25.41,0,0,1,6.91-6,15.13,15.13,0,0,1,7.66-2.21q3.46,0,5.07,1.88a7.18,7.18,0,0,1,1.6,4.79,16.38,16.38,0,0,1-.43,3.57,32.62,32.62,0,0,1-1.08,3.76,20,20,0,0,1-2.44,4.79c-1,1.44-1.85,2.57-2.54,3.39a4.62,4.62,0,0,0,4.28.14,12.61,12.61,0,0,0,4.08-3,25.53,25.53,0,0,0,3-3.81.88.88,0,0,1,.52-.47,2.24,2.24,0,0,1,.42-.09c.63,0,.75.38.38,1.13a19,19,0,0,1-6.86,7.09q-3.76,2-6.67.24l-.19.28a27.45,27.45,0,0,1-3.1,3.8,15.7,15.7,0,0,1-3.76,2.87,11.89,11.89,0,0,1-2.63,1A10.6,10.6,0,0,1,447.12,170.05Zm.84-1.6a9,9,0,0,0,4.23-1.22,16.45,16.45,0,0,0,3.62-2.82,25.77,25.77,0,0,0,2.67-3.19,4.17,4.17,0,0,1-1.78-1.74,6.12,6.12,0,0,1-.75-3.15,12.89,12.89,0,0,1,.8-4.27,11,11,0,0,1,2.25-3.9,4.3,4.3,0,0,1,3.24-1.6,2.87,2.87,0,0,1,1.83.56,1.67,1.67,0,0,1,.71,1.32,7.39,7.39,0,0,0,.33-1.41,14.65,14.65,0,0,0,.14-2.07,5.35,5.35,0,0,0-.94-3.52,3.2,3.2,0,0,0-2.54-1.08,5.06,5.06,0,0,0-1.36.19A13.65,13.65,0,0,0,459,141a20.86,20.86,0,0,0-7.09,5.26,27.36,27.36,0,0,0-5.5,8.55,35.6,35.6,0,0,0-1.4,4.41,18.76,18.76,0,0,0-.66,4.7,4.68,4.68,0,0,0,1.08,3.48A3.59,3.59,0,0,0,448,168.45Zm20-27.25a13.46,13.46,0,0,1-2.39-.18,6.84,6.84,0,0,1-1.74-.57c-.5-.18-.75-.4-.75-.65s.25-.5.75-.38a6.39,6.39,0,0,0,1.31.28,12.28,12.28,0,0,0,1.41.1,4.32,4.32,0,0,0,3-.76,2.33,2.33,0,0,0,.8-1.78,5.08,5.08,0,0,0-.47-2,4.69,4.69,0,0,1-.19-.52,2.65,2.65,0,0,1-.09-.71c0-.75.31-1.12.94-1.12s1.28.47,1.79,1.41a7,7,0,0,1,.84,3.1,3.31,3.31,0,0,1-1.31,2.72A6.17,6.17,0,0,1,468,141.2Z"/><path class="cls-1" d="M474,169.86a6.21,6.21,0,0,1-4.28-1.55,5.66,5.66,0,0,1-1.74-4.46,12.8,12.8,0,0,1,.57-3.48,23.37,23.37,0,0,1,1.55-3.8q.89-1.74,2.3-4L481.6,139a2.85,2.85,0,0,1,1.4-.61,11.39,11.39,0,0,1,1.79-.14,9.68,9.68,0,0,1,2.25.23c.63.16.88.4.76.71L478.5,153c-.19.25-.8,1.11-1.84,2.58a48.15,48.15,0,0,0-3,4.84,12.3,12.3,0,0,0-1.78,5.64c0,1.69.78,2.53,2.35,2.53a6.4,6.4,0,0,0,1.83-.32,14.42,14.42,0,0,0,2.49-1.08q5.91-3.3,12.12-13.35c.19-.31.36-.48.52-.51l.32-.05a.6.6,0,0,1,.62.33.89.89,0,0,1-.15.8,84.14,84.14,0,0,1-6.62,8.92,20.9,20.9,0,0,1-6.81,5.45A10.63,10.63,0,0,1,474,169.86Zm15.59-35.33a2.48,2.48,0,0,1-2-.84,3,3,0,0,1-.7-2,3.74,3.74,0,0,1,1.31-3,4.28,4.28,0,0,1,2.82-1.13,2.71,2.71,0,0,1,2.07.8,2.84,2.84,0,0,1,.75,2,3.79,3.79,0,0,1-1.32,3A4.25,4.25,0,0,1,489.58,134.53Z"/><path class="cls-1" d="M520,192a4.35,4.35,0,0,1-3.1-1.83,8.23,8.23,0,0,1-2-3.43,1.58,1.58,0,0,1-.1-.56v-.47a4.6,4.6,0,0,1,.61-2.35,2.34,2.34,0,0,1,1.46-1.22,4.3,4.3,0,0,1,2.82-3.29,10.53,10.53,0,0,1-5.31-2.3,6.24,6.24,0,0,1-2.4-5.12,6.82,6.82,0,0,1,.29-2c.06-.31.1-.65.14-1s0-.72,0-1a5.11,5.11,0,0,0-.65-2.73,3,3,0,0,1-.94.19,3,3,0,0,1-1.93-.75,4.13,4.13,0,0,1-1.27-1.79,5.7,5.7,0,0,1-.37-2,5.49,5.49,0,0,1,.09-1,4.65,4.65,0,0,0,.09-.85,5.48,5.48,0,0,0-.47-2.16,1.5,1.5,0,0,0-1.78-.94c.06-.12.17-.31.33-.56s.61-.38,1.36-.38a6.1,6.1,0,0,1,3.66,1.55,8.24,8.24,0,0,1,2.64,3.15,4.15,4.15,0,0,1,.37,1.13,6.62,6.62,0,0,1,.1,1,3.55,3.55,0,0,1-1.23,3,5.39,5.39,0,0,1,.85,2.82,8.6,8.6,0,0,1,3.15-2.54,8.39,8.39,0,0,1,3.71-.94,3.2,3.2,0,0,1,2.53-1.22,3.12,3.12,0,0,1,2.73,1.6,5.5,5.5,0,0,0,1.22.18,2.72,2.72,0,0,0,1.17-.23,1,1,0,0,0,.62-.61c.12-.44.32-.66.61-.66a.47.47,0,0,1,.51.38,2.77,2.77,0,0,1-.14,1.64c-.22.66-.89,1-2,1.17a4.28,4.28,0,0,1-1.41-.37,3,3,0,0,1,.1.7v.8a4.55,4.55,0,0,1,0,.61,5.27,5.27,0,0,0-.05.71v.28a2.13,2.13,0,0,0,.52,1.45.75.75,0,0,0,1.08.24,1.39,1.39,0,0,1,.61-.19c.16,0,.17.16,0,.47a2.54,2.54,0,0,1-2.16,1.22,2.65,2.65,0,0,1-2.35-1.31,5.31,5.31,0,0,1-.94-2.26,4,4,0,0,0-1-2.58,2.94,2.94,0,0,0-1.59-.89.18.18,0,0,1-.14,0,.22.22,0,0,0-.14-.05,8.65,8.65,0,0,0-3.57,1.79,6,6,0,0,0-2.26,3.29,6.17,6.17,0,0,0-.14.79,8.57,8.57,0,0,0-.05.9,5.26,5.26,0,0,0,2.21,4.51,8.53,8.53,0,0,0,5.12,1.59,16.66,16.66,0,0,0,8.83-3,55.89,55.89,0,0,0,9.54-7.79,128.26,128.26,0,0,0,9.54-10.76q4.7-5.93,8.92-11.93T565.68,133c1.06-1.63,2.32-3.37,3.76-5.21s3-3.71,4.6-5.59q-5-1.7-10.14-3.15a81.53,81.53,0,0,0-10.34-2.21,22.62,22.62,0,0,1-1.08,7.38,31.9,31.9,0,0,1-3.33,7.18c.68-.37,1.36-.7,2-1a5.62,5.62,0,0,1,2.21-.43,2.33,2.33,0,0,1,1.32-1.69,5.22,5.22,0,0,1,2.16-.47,5,5,0,0,1,2.25.47,16.39,16.39,0,0,1,2.45,1.51,3.9,3.9,0,0,1,1.78,2.82,6.35,6.35,0,0,0-1.13-.52,5.38,5.38,0,0,0-2-.33,5.72,5.72,0,0,0-3.1,1,1.89,1.89,0,0,1-1.22.38,2.12,2.12,0,0,1-1.64-.8,3.87,3.87,0,0,1-.9-1.55,9,9,0,0,0-4.88,2.16,1.56,1.56,0,0,1-.47.19,47.36,47.36,0,0,1-9.12,10.24A39.74,39.74,0,0,1,528.48,150a29,29,0,0,1-5.55,1.73,25,25,0,0,1-4.88.52q-6.3,0-9.68-3.57A12.2,12.2,0,0,1,505,140a19.11,19.11,0,0,1,2.21-8.5,27.46,27.46,0,0,1,6.9-8.5,38.42,38.42,0,0,1,9.49-5.87,51.25,51.25,0,0,1,10.76-3.39,38,38,0,0,1,10.29-.7,53.58,53.58,0,0,1,7.14.85,17.47,17.47,0,0,0-2.45-6.11,16.17,16.17,0,0,0-7.89-6,2.82,2.82,0,0,0-2.16.66,4.32,4.32,0,0,0-1.13,1.41,4.05,4.05,0,0,0-.47,1.79q0,1.13.75,1.41c.32.06.47.18.47.37s-.31.38-.94.38a3.54,3.54,0,0,1-1.69-.52,1.83,1.83,0,0,1-.94-1.74,3.57,3.57,0,0,1,1.55-2.82,5.94,5.94,0,0,1,3.43-1.31h.1a30.32,30.32,0,0,0-11.09-1.13l-1.46.19a10.25,10.25,0,0,0-1.36.28l-.66.1a.84.84,0,0,0-.37.09l-.38.19a6,6,0,0,0-2,1.12,3.09,3.09,0,0,0-.85,2.26,1.66,1.66,0,0,0,1.32,1.88c.31.06.47.2.47.42s-.16.36-.47.42a1.19,1.19,0,0,1-.56.1,1.88,1.88,0,0,1-1.41-.57,2.64,2.64,0,0,1-.57-.79,5.51,5.51,0,0,1-.28-.8l-.28.47a14.17,14.17,0,0,1-1.69,2,13.34,13.34,0,0,1-2.82,2.2,6.23,6.23,0,0,1-3.19.94,3.15,3.15,0,0,1-3-1.78.39.39,0,0,1-.09-.28c0-.13.09-.19.28-.19a3.64,3.64,0,0,1,.56,0,4.33,4.33,0,0,0,.66,0,2.93,2.93,0,0,0,2-.94,5.12,5.12,0,0,0,1.36-2,22.39,22.39,0,0,1,2-4.18,7,7,0,0,1,2.73-2.77,5.79,5.79,0,0,1,2.63-.66,4.84,4.84,0,0,1,3.57,1.41,10.05,10.05,0,0,1,1.78-.42c.63-.1,1.26-.17,1.88-.24a11.87,11.87,0,0,1,1.41-.09h1.32a27.16,27.16,0,0,1,11,2,16.78,16.78,0,0,1,7.14,5.59,15.19,15.19,0,0,1,2.21,3.76,20.5,20.5,0,0,1,1.17,4,99.81,99.81,0,0,1,11,2.91c3.67,1.19,7.31,2.44,11,3.76,1.44-1.57,2.92-3.06,4.46-4.47s3.08-2.7,4.65-3.89a16.19,16.19,0,0,1,5.26-2.73,17.59,17.59,0,0,1,4.79-.75,10.34,10.34,0,0,1,4,.66,3,3,0,0,1,1.83,1.5l-.47.28a4.81,4.81,0,0,0-1.83-1.22,7.54,7.54,0,0,0-2.77-.47,13.71,13.71,0,0,0-4.42.89,21.49,21.49,0,0,0-5.54,3.15,26.87,26.87,0,0,0-3.48,3.29q-1.87,2.07-4,4.79c2.88,1.07,5.69,2.11,8.41,3.15s5.37,2,7.94,2.86a46.33,46.33,0,0,0,6.53,1.74,28,28,0,0,0,4.93.52,12.06,12.06,0,0,0,5.92-1.18,7.82,7.82,0,0,0,3-2.63,12,12,0,0,0,1.18-2.3l1.31.38a9.17,9.17,0,0,1-4.79,5.78,13.86,13.86,0,0,1-6.48,1.26,30.71,30.71,0,0,1-5.26-.51,51.52,51.52,0,0,1-6.67-1.74c-2.7-.88-5.45-1.85-8.27-2.91s-5.7-2.1-8.65-3.1q-3.09,4.32-6.29,9.34t-6,9.68q-2.82,4.65-5,8a99.93,99.93,0,0,1-11.23,14.85,51.71,51.71,0,0,1-12.73,10.29A27.43,27.43,0,0,1,521.8,179a6.35,6.35,0,0,0-1.36.38,4.89,4.89,0,0,0-1.27.75,4.2,4.2,0,0,0-1.59,2.07,2.74,2.74,0,0,1,1.92.84,2.55,2.55,0,0,1,.9,1.88v.57a6.71,6.71,0,0,1-.15,1.55c-.09.4-.2.79-.32,1.17a3.44,3.44,0,0,0-.19,1.13,3.11,3.11,0,0,0,.33,1.41,1.33,1.33,0,0,0,1.08.75,2.27,2.27,0,0,0-.28.33A1.14,1.14,0,0,1,520,192Zm-.85-41.34a17.13,17.13,0,0,0,3.86-.47,30,30,0,0,0,4.41-1.4c.38-.13.78-.25,1.22-.38a2.53,2.53,0,0,0,1.13-.66l.09-.09a15,15,0,0,0,3.29-3.06,9,9,0,0,0,2.07-3.8,3.79,3.79,0,0,1-2.87-1.08,4.87,4.87,0,0,1-1.55-2.68c-.06-.38-.11-.72-.14-1s0-.63,0-.94a6.87,6.87,0,0,1,.14-1.51c.09-.43.2-.87.33-1.31a4.49,4.49,0,0,0,.09-1.13,5.54,5.54,0,0,0-.56-2.39,1.94,1.94,0,0,0-1.88-1.18,3.54,3.54,0,0,1,.47-.61,1.85,1.85,0,0,1,1.41-.42,5.52,5.52,0,0,1,3.14,1.13,13.35,13.35,0,0,1,3,2.77,9.56,9.56,0,0,1,1.79,3.24,8.78,8.78,0,0,1,.28,2.16,6,6,0,0,1-.75,3,4,4,0,0,1-1.88,1.78h-.09a4.14,4.14,0,0,1-.66,2.3,16,16,0,0,1-1.69,2.49,50.52,50.52,0,0,0,8.92-7.84,43.85,43.85,0,0,0,6.91-10.06,22.53,22.53,0,0,0,2.49-10.85l-3.9-.33c-1.29-.09-2.59-.14-3.9-.14a46.29,46.29,0,0,0-19.21,4.94,33,33,0,0,0-8.32,5.87,23,23,0,0,0-5.07,7.09A17.7,17.7,0,0,0,510,141.3a10,10,0,0,0,2.3,6.67C513.8,149.79,516.1,150.69,519.17,150.69Z"/><path class="cls-1" d="M581.56,169.67q-5.17,0-5.17-5.16a9.71,9.71,0,0,1,1.46-4.51,47.14,47.14,0,0,1,3.52-5.41c1.38-1.84,2.69-3.52,4-5s2.19-2.6,2.81-3.29C590,144,591,142.43,591,141.49c0-.69-.4-1-1.22-1a4.31,4.31,0,0,0-1.78.38,20.77,20.77,0,0,0-7.05,4.51,57.1,57.1,0,0,0-6.81,7.56,96.21,96.21,0,0,0-5.78,8.5c-1.69,2.82-3,5.27-4,7.33-.06.19-.39.33-1,.43a12.73,12.73,0,0,1-1.92.14,8.83,8.83,0,0,1-1.65-.14c-.47-.1-.7-.24-.7-.43q3.38-6.19,6.29-11.32t6.63-11.32q3.71-6.19,7.75-12.4,3.29-5.07,6.76-10.15A80.08,80.08,0,0,1,594.1,114a39.31,39.31,0,0,1,9.54-7.47,14.29,14.29,0,0,1,3.71-1.65,11.75,11.75,0,0,1,2.86-.42,7.4,7.4,0,0,1,2.16.28c1.44.38,2.16,1.47,2.16,3.29a13.85,13.85,0,0,1-1.12,4.93,32.21,32.21,0,0,1-2.92,5.64,43,43,0,0,1-3.66,4.93,49,49,0,0,1-10,8.6,41.43,41.43,0,0,1-8.78,4.32q-3.9,1.28-6,1.74-.75,1-2.16,3.15c-.94,1.41-2,2.92-3.1,4.55a5.17,5.17,0,0,0-.94,1.6c0,.06.13,0,.38-.14a4.8,4.8,0,0,0,.84-.71,55.62,55.62,0,0,1,5.12-4.51,21.51,21.51,0,0,1,5.41-3.1,11,11,0,0,1,3.94-.75A7.62,7.62,0,0,1,595,139a2.37,2.37,0,0,1,1.45,2.3,6.18,6.18,0,0,1-1.41,3.38c-.81,1.07-2,2.6-3.43,4.61s-3,4.13-4.51,6.38a72.5,72.5,0,0,0-3.89,6.35,10.7,10.7,0,0,0-1.6,4.46c0,.94.44,1.41,1.31,1.41a7.69,7.69,0,0,0,4.18-1.55,33.33,33.33,0,0,0,4.65-3.85,49.47,49.47,0,0,0,4.28-4.75,52.08,52.08,0,0,0,3-4.23,1.6,1.6,0,0,1,.66-.19c.63,0,.78.35.47,1a52.57,52.57,0,0,1-6.11,7.89,32,32,0,0,1-6.53,5.45A11.71,11.71,0,0,1,581.56,169.67Zm1.78-33.26a28.34,28.34,0,0,0,5-1.78,44.88,44.88,0,0,0,7.33-4.23,48.26,48.26,0,0,0,8.31-7.52q1.69-1.87,3.9-4.69a29.39,29.39,0,0,0,3.34-5.17,21.82,21.82,0,0,0,1.08-2.87,7.39,7.39,0,0,0,.33-1.92c0-1.13-.51-1.69-1.51-1.69a7.77,7.77,0,0,0-3.76,1.36,26.82,26.82,0,0,0-4,3,65.48,65.48,0,0,0-6.1,6.43q-3.19,3.81-6.06,7.76t-5,7Q584.09,135.2,583.34,136.41Z"/><path class="cls-1" d="M604.67,170.05a8,8,0,0,1-4-1,6.38,6.38,0,0,1-2.78-3.38,10.85,10.85,0,0,1-.65-4,18.86,18.86,0,0,1,1.12-6.29,28.11,28.11,0,0,1,4.8-8.79,25.23,25.23,0,0,1,6.9-6,15.16,15.16,0,0,1,7.66-2.21c2.31,0,4,.63,5.07,1.88a7.13,7.13,0,0,1,1.6,4.79,16.34,16.34,0,0,1-.42,3.57,37.17,37.17,0,0,1-1.08,3.76,20.39,20.39,0,0,1-2.45,4.79c-1,1.44-1.85,2.57-2.53,3.39a4.6,4.6,0,0,0,4.27.14,12.75,12.75,0,0,0,4.09-3,26.07,26.07,0,0,0,3-3.81.88.88,0,0,1,.52-.47,2.24,2.24,0,0,1,.42-.09c.63,0,.76.38.38,1.13a18.89,18.89,0,0,1-6.86,7.09c-2.5,1.35-4.73,1.43-6.67.24l-.19.28a27.45,27.45,0,0,1-3.1,3.8,15.7,15.7,0,0,1-3.76,2.87,11.89,11.89,0,0,1-2.63,1A10.55,10.55,0,0,1,604.67,170.05Zm.84-1.6a9,9,0,0,0,4.23-1.22,16.22,16.22,0,0,0,3.62-2.82,25.92,25.92,0,0,0,2.68-3.19,4.19,4.19,0,0,1-1.79-1.74,6.12,6.12,0,0,1-.75-3.15,13.15,13.15,0,0,1,.8-4.27,11,11,0,0,1,2.25-3.9,4.31,4.31,0,0,1,3.25-1.6,2.87,2.87,0,0,1,1.83.56,1.66,1.66,0,0,1,.7,1.32,6.12,6.12,0,0,0,.33-1.41,14.65,14.65,0,0,0,.14-2.07,5.3,5.3,0,0,0-.94-3.52,3.17,3.17,0,0,0-2.53-1.08,5.14,5.14,0,0,0-1.37.19,13.51,13.51,0,0,0-1.45.47,20.8,20.8,0,0,0-7.1,5.26,27.15,27.15,0,0,0-5.49,8.55,35.5,35.5,0,0,0-1.41,4.41,18.76,18.76,0,0,0-.66,4.7,4.68,4.68,0,0,0,1.08,3.48A3.59,3.59,0,0,0,605.51,168.45Zm14.57-34.95c-.51,0-.66-.28-.47-.84a7.57,7.57,0,0,1,2.06-3,4,4,0,0,0,1.32-3.2,2.52,2.52,0,0,0-.42-1.4,1.61,1.61,0,0,0-1.46-.66,4.7,4.7,0,0,0-2.44.47q-.75.47-1.41.84h-.1a.47.47,0,0,1-.42-.33.6.6,0,0,1,0-.61,6.84,6.84,0,0,1,2.63-2,8.52,8.52,0,0,1,3.66-.85,3.11,3.11,0,0,1,3.48,3.29,5,5,0,0,1-.38,1.93,5.31,5.31,0,0,1-1.41,1.83,29.14,29.14,0,0,0-3.85,3.67,2.25,2.25,0,0,1-.28.56A.63.63,0,0,1,620.08,133.5Zm5.45,7.7a13.66,13.66,0,0,1-2.4-.18,6.84,6.84,0,0,1-1.74-.57c-.5-.18-.75-.4-.75-.65s.25-.5.75-.38a6.5,6.5,0,0,0,1.32.28,12,12,0,0,0,1.41.1,4.34,4.34,0,0,0,3-.76,2.37,2.37,0,0,0,.8-1.78,5.27,5.27,0,0,0-.47-2,2.51,2.51,0,0,1-.19-.52,2.3,2.3,0,0,1-.1-.71c0-.75.32-1.12.94-1.12s1.29.47,1.79,1.41a7,7,0,0,1,.84,3.1,3.31,3.31,0,0,1-1.31,2.72A6.13,6.13,0,0,1,625.53,141.2Z"/><path class="cls-1" d="M639.9,179a21.43,21.43,0,0,0,10.29-3.57,69.7,69.7,0,0,0,11.41-9q5.92-5.62,12.12-12.49l-1,.28H672a7.17,7.17,0,0,1-1.13-.09,2.3,2.3,0,0,1-1-.47,2.69,2.69,0,0,1-2.54,1.12,6.63,6.63,0,0,1-1-.09,2.78,2.78,0,0,1-1-.38,7.71,7.71,0,0,1-2.59-2.3,5.15,5.15,0,0,1-1.27-3.05c0-.69.13-1.11.38-1.27a1.35,1.35,0,0,1,.47-.23,1.41,1.41,0,0,0,.85,1.45,3.64,3.64,0,0,0,1.78.52,5.73,5.73,0,0,0,.66,0,6.28,6.28,0,0,1,.75,0,4.57,4.57,0,0,1,1.88.37,3.33,3.33,0,0,1,1.69,1.41,2.25,2.25,0,0,1,.28,2.07l.66.23a2,2,0,0,0,.75.14,5.06,5.06,0,0,0,1.22-.19A4.44,4.44,0,0,0,674,153a5.76,5.76,0,0,0,1.08-.66q5.25-5.82,10.43-11.84-1.14-6.28-2.78-12.16a47.28,47.28,0,0,0-4.22-10.48,21.45,21.45,0,0,0-6.58-7.33,17.23,17.23,0,0,0-9.91-2.72,14.72,14.72,0,0,0-6.81,1.6,14.31,14.31,0,0,0-5.22,4.46,13.1,13.1,0,0,0-2.35,6.9.28.28,0,0,1,.19-.09,5.38,5.38,0,0,0,1.6,1.69,3.69,3.69,0,0,0,2.16.94,1,1,0,0,0,.75-.28,1.09,1.09,0,0,1,.75-.38.5.5,0,0,1,.57.57,2.43,2.43,0,0,1-.57,1.41,2,2,0,0,1-1.69.75,3.34,3.34,0,0,1-1.5-.38,4.23,4.23,0,0,1-1.51-1.5,7,7,0,0,1-.84-1.69v.8a4.71,4.71,0,0,0,.09.89,17,17,0,0,0,2.68,7.56,18.75,18.75,0,0,0,6,5.92,14.82,14.82,0,0,0,8.08,2.3h.94a3.61,3.61,0,0,0,.84-.09,7.63,7.63,0,0,0,.8,0,6.34,6.34,0,0,0,.8-.14,5.65,5.65,0,0,0,2.25-1.22,4.72,4.72,0,0,0,1.22-1.5,3,3,0,0,1-2.06-1.23,3.73,3.73,0,0,1-.75-2.25,4.8,4.8,0,0,1,.47-2.35l.84-1.5c.13-.32.25-.64.38-1a3.23,3.23,0,0,0,.19-1.08,3.05,3.05,0,0,0-.24-1.22,1.32,1.32,0,0,0-1-.75,1.77,1.77,0,0,1,1.13-.38,3,3,0,0,1,1.83.61,6.89,6.89,0,0,1,1.18,1.08,8.12,8.12,0,0,1,1.27,2.68,10.72,10.72,0,0,1,.42,2.77,5.43,5.43,0,0,1-1,3,3.67,3.67,0,0,1-1.92,1.5,5.85,5.85,0,0,1-2.26,3.2,6.78,6.78,0,0,1-3.66,1.12h-.66a18.26,18.26,0,0,1-7.38-.89,17.13,17.13,0,0,1-5.77-3.33,3,3,0,0,1,.18.84,5.43,5.43,0,0,1-.84,3.85,3.36,3.36,0,0,1,.47,1.79,5.47,5.47,0,0,1-.56,2.25,5.8,5.8,0,0,1-1.79,2.16,7.89,7.89,0,0,1-2.82,1.37,12.33,12.33,0,0,1-3.38.51,4.63,4.63,0,0,1-3.38-1,1.83,1.83,0,0,1-.61-1c0-.28,0-.45,0-.51a1.64,1.64,0,0,0,1,.37,2.45,2.45,0,0,0,1.83-.84,6.29,6.29,0,0,0,1.17-1.69c.25-.51.52-1.07.8-1.7a5.46,5.46,0,0,1,1.55-1.87,4.34,4.34,0,0,1,2.91-1.13,4.93,4.93,0,0,1,1.18.14,1.74,1.74,0,0,1,1,.61,5.67,5.67,0,0,0,.37-3.38,10.54,10.54,0,0,0-.52-1.65,7.47,7.47,0,0,0-.79-1.45,22.07,22.07,0,0,1-2.68-4.79,17.25,17.25,0,0,1-1.27-5.45,9.14,9.14,0,0,1-.09-1.23v-1.12a20.43,20.43,0,0,1,1.5-8,17.5,17.5,0,0,1,4-5.92,7.15,7.15,0,0,1-2.07.28,3.59,3.59,0,0,1-2-.47,2.41,2.41,0,0,1-1.23-2.34,3.25,3.25,0,0,1,.66-2.07.75.75,0,0,1,.47-.28c.19,0,.28.34.28,1s.58,1.17,1.74,1.64a8.51,8.51,0,0,0,3.15.71,1.81,1.81,0,0,0,.75-.1h.19a17.76,17.76,0,0,1,10.33-3.19,18.36,18.36,0,0,1,10.53,2.87,21.8,21.8,0,0,1,6.9,7.79,49,49,0,0,1,4.28,11.09q1.59,6.15,2.72,12.82,6-7,12-13.62t11.74-11.93a73.69,73.69,0,0,1,11.18-8.69,24.33,24.33,0,0,1,10.29-3.81A9.11,9.11,0,0,1,734.6,99h1c3.57,0,6.13.77,7.7,2.3a6.81,6.81,0,0,1,2.35,4.84,5.9,5.9,0,0,1-.94,3.24,4.86,4.86,0,0,1-2.54,2l-.28-1a4.15,4.15,0,0,0,2.26-3.76,4.8,4.8,0,0,0-1.65-3.48,6.84,6.84,0,0,0-4.93-1.59,15.21,15.21,0,0,0-3.85.56,32.34,32.34,0,0,0-9.68,4.93,102.55,102.55,0,0,0-11,9.16q-5.77,5.46-11.88,11.89t-12.31,13.2q1.13,7.42,2.21,14.47a67.5,67.5,0,0,0,3,12.35,15.59,15.59,0,0,0,5.26,7.75,4.37,4.37,0,0,0,2.72.85,5.1,5.1,0,0,0,3.48-1.46,5.76,5.76,0,0,0,1.59-4.46v-.71a3.05,3.05,0,0,0-.09-.7h1.32a3.2,3.2,0,0,1,.09.75v.75a7.71,7.71,0,0,1-7.52,8.08,6.72,6.72,0,0,1-4.13-1.41,17.84,17.84,0,0,1-5.17-7.89,70.41,70.41,0,0,1-3.05-11.84q-1.17-6.66-2.4-13.62-3.75,4-7.51,8t-7.43,7.57a4.17,4.17,0,0,0-.37,1.88,4.43,4.43,0,0,0,.28,1.59c.19.51.47.79.85.85s.65.22.65.47a.61.61,0,0,1-.28.56,1.66,1.66,0,0,1-1,.28,1.92,1.92,0,0,1-1.18-.47,2.41,2.41,0,0,1-.79-1.59l-.1-.38a1.79,1.79,0,0,1,.19-.84,3.67,3.67,0,0,0,.28-.76q-5.64,5.46-10.94,9.82a59.88,59.88,0,0,1-10.06,6.86,19.08,19.08,0,0,1-8.78,2.49Z"/><path class="cls-1" d="M714,169.3a4.64,4.64,0,0,1-4-2,8.94,8.94,0,0,1-1.41-5.22,21.76,21.76,0,0,1,1.88-8.08,22.09,22.09,0,0,1,3.1-5.21,31.63,31.63,0,0,1,4.79-5,25.57,25.57,0,0,1,5.87-3.76,15.19,15.19,0,0,1,6.44-1.46c1.69,0,2.84.44,3.47,1.32a5.33,5.33,0,0,1,.94,3.19,12.94,12.94,0,0,1-.56,3.67l5.26-8a5.81,5.81,0,0,1,2.91-.47,13.69,13.69,0,0,1,3.24.38c1,.25,1.33.63.89,1.13s-1.36,1.58-2.58,2.86-2.54,2.81-4,4.56a66.79,66.79,0,0,0-4,5.54c-.62,1.07-1.55,2.63-2.77,4.7a35.7,35.7,0,0,0-2.86,5.92,9,9,0,0,0-.57,2.72c0,1.32.57,2,1.69,2a6.83,6.83,0,0,0,2.54-.71,13.57,13.57,0,0,0,3.1-1.93,25.42,25.42,0,0,0,5.26-5.87q2.25-3.42,4-6.06a1.83,1.83,0,0,1,.24-.19,1,1,0,0,1,.51-.09.62.62,0,0,1,.57.33c.12.22.06.49-.19.8q-2.64,3.94-5.17,7.37a28.19,28.19,0,0,1-5.17,5.5,9.06,9.06,0,0,1-5.73,2.07,5.27,5.27,0,0,1-3.9-1.46,5.39,5.39,0,0,1-1.45-4,13,13,0,0,1,.23-2.35,15.47,15.47,0,0,1,.61-2.26,55.59,55.59,0,0,1-3.71,4.33,29.51,29.51,0,0,1-4.65,4A8.6,8.6,0,0,1,714,169.3Zm.84-1.79a7,7,0,0,0,4-1.5,26.4,26.4,0,0,0,4.28-3.9,41.93,41.93,0,0,0,3.94-5.12c1-1.5,2-3.1,3-4.79a40.82,40.82,0,0,0,2.45-5,12.08,12.08,0,0,0,1-4.42q0-3-2.16-3a6.47,6.47,0,0,0-3.47,1.31,25.76,25.76,0,0,0-4,3.38,39.6,39.6,0,0,0-3.75,4.47,27,27,0,0,0-2.78,4.65c-.18.37-.64,1.28-1.36,2.72s-1.41,3-2.07,4.7a12.61,12.61,0,0,0-1,4.41C712.9,166.82,713.56,167.51,714.87,167.51Z"/><path class="cls-1" d="M769.17,170.05a5.53,5.53,0,0,1-3.85-1.46,5.38,5.38,0,0,1-1.59-4.18,14.48,14.48,0,0,1,1.87-6.81,60.23,60.23,0,0,1,4.42-7q2.54-3.48,4.42-6.39a6.25,6.25,0,0,0,1-2.91c0-.88-.41-1.32-1.22-1.32a6.29,6.29,0,0,0-2.82,1.18,31.47,31.47,0,0,0-4.79,4,58.49,58.49,0,0,0-5.4,6.25c-1.73,2.29-3.29,4.56-4.7,6.81s-2.63,4.32-3.67,6.2-1.8,3.32-2.3,4.32a5.36,5.36,0,0,1-1.64.38c-.66.06-1.33.09-2,.09a10.65,10.65,0,0,1-3.1-.28c.81-1.13,1.89-2.69,3.24-4.7s2.77-4.18,4.27-6.53,2.88-4.55,4.14-6.62l2.25-3.85a42,42,0,0,0,2.07-3.9,7.58,7.58,0,0,0,.85-2.77c0-.63-.26-.94-.76-.94a2.45,2.45,0,0,0-1.22.47,6.36,6.36,0,0,0-1.41,1.22,41.3,41.3,0,0,0-3.61,4.37q-2.22,3-5.78,8.69a1,1,0,0,1-.94.47c-.5,0-.63-.35-.38-1q1.69-2.72,3.48-5.49t3.57-5.22a29.53,29.53,0,0,1,3.52-3.9,5.24,5.24,0,0,1,3.53-1.45,3.25,3.25,0,0,1,2.72,1.22,4.46,4.46,0,0,1,.94,2.82,11.72,11.72,0,0,1-.85,4.13c.25-.25.49-.5.71-.75s.45-.5.7-.75a25.3,25.3,0,0,1,6.44-5.12,12.23,12.23,0,0,1,5.5-1.65,5,5,0,0,1,3.05.94,3,3,0,0,1,1.27,2.54,10.45,10.45,0,0,1-1.32,4.51,39.85,39.85,0,0,1-3,5c-1.09,1.57-2,2.79-2.68,3.66-.43.63-1.28,1.77-2.53,3.43a32.91,32.91,0,0,0-3.2,5.12,8.62,8.62,0,0,0-.89,2,6.4,6.4,0,0,0-.23,1.65c0,1.44.65,2.16,2,2.16s3.22-.85,5.35-2.54a35.52,35.52,0,0,0,5.22-5.12,55.25,55.25,0,0,0,5.12-7.19c.19-.31.37-.48.56-.51l.38-.05c.44,0,.56.38.37,1.13a83,83,0,0,1-5.68,8,31,31,0,0,1-6,5.83A9.55,9.55,0,0,1,769.17,170.05Z"/><path class="cls-1" d="M799.15,169.67q-5.17,0-5.17-5.16a9.68,9.68,0,0,1,1.45-4.51,47.28,47.28,0,0,1,3.53-5.41c1.38-1.84,2.69-3.52,3.94-5s2.2-2.6,2.82-3.29c1.88-2.26,2.82-3.85,2.82-4.79,0-.69-.41-1-1.22-1a4.39,4.39,0,0,0-1.79.38,20.83,20.83,0,0,0-7,4.51,57.1,57.1,0,0,0-6.81,7.56,96.21,96.21,0,0,0-5.78,8.5c-1.69,2.82-3,5.27-4,7.33-.06.19-.39.33-1,.43a12.83,12.83,0,0,1-1.92.14,8.83,8.83,0,0,1-1.65-.14c-.47-.1-.7-.24-.7-.43q3.38-6.19,6.29-11.32t6.63-11.32q3.71-6.19,7.75-12.4,3.29-5.07,6.76-10.15a80.08,80.08,0,0,1,7.66-9.53,39.07,39.07,0,0,1,9.53-7.47,14.48,14.48,0,0,1,3.72-1.65,11.75,11.75,0,0,1,2.86-.42,7.49,7.49,0,0,1,2.16.28c1.44.38,2.16,1.47,2.16,3.29A13.85,13.85,0,0,1,831,113a32.91,32.91,0,0,1-2.92,5.64,43,43,0,0,1-3.66,4.93,49,49,0,0,1-10,8.6,41.67,41.67,0,0,1-8.78,4.32q-3.9,1.28-6,1.74-.75,1-2.16,3.15c-.94,1.41-2,2.92-3.1,4.55a5.17,5.17,0,0,0-.94,1.6c0,.06.12,0,.37-.14a4.82,4.82,0,0,0,.85-.71,55.62,55.62,0,0,1,5.12-4.51,21.63,21.63,0,0,1,5.4-3.1,11.06,11.06,0,0,1,4-.75,7.55,7.55,0,0,1,3.33.71,2.38,2.38,0,0,1,1.46,2.3,6.18,6.18,0,0,1-1.41,3.38c-.81,1.07-2,2.6-3.43,4.61s-3,4.13-4.51,6.38-2.83,4.37-3.9,6.35a10.8,10.8,0,0,0-1.59,4.46c0,.94.43,1.41,1.31,1.41a7.71,7.71,0,0,0,4.18-1.55,33.33,33.33,0,0,0,4.65-3.85,50.84,50.84,0,0,0,4.28-4.75,52.08,52.08,0,0,0,3-4.23,1.6,1.6,0,0,1,.66-.19c.62,0,.78.35.47,1a53.23,53.23,0,0,1-6.11,7.89,32.25,32.25,0,0,1-6.53,5.45A11.71,11.71,0,0,1,799.15,169.67Zm1.78-33.26a28.34,28.34,0,0,0,5-1.78,44.88,44.88,0,0,0,7.33-4.23,48.26,48.26,0,0,0,8.31-7.52q1.7-1.87,3.9-4.69a28.72,28.72,0,0,0,3.33-5.17,23.64,23.64,0,0,0,1.09-2.87,7.76,7.76,0,0,0,.32-1.92c0-1.13-.5-1.69-1.5-1.69A7.77,7.77,0,0,0,825,107.9a26.82,26.82,0,0,0-4,3,64.31,64.31,0,0,0-6.1,6.43q-3.2,3.81-6.06,7.76c-1.92,2.63-3.57,5-5,7S801.43,135.6,800.93,136.41Z"/><path class="cls-1" d="M146.65,155.25a15,15,0,0,0,3.5,1.17C149,156,147.81,155.65,146.65,155.25Z"/><path class="cls-1" d="M203.57,20.74a98.16,98.16,0,0,0-27.16-9.68l-.88-.07a139.76,139.76,0,0,1,40.75,17.84A87.08,87.08,0,0,0,203.57,20.74ZM14,208c1,2.36,2.13,4.7,3.32,7A114,114,0,0,0,31.53,236.5,107.33,107.33,0,0,0,45,249.87,140.64,140.64,0,0,1,14,208Z"/><path class="cls-1" d="M232.42,205.43c-3.07,17.91-15.15,17.7-21.7,25.68-4.71,9.66-1.07,17-.82,17.43-17.2,1.05-23.14-8.11-25.12-12.93-.91.06-1.82-.23-2.72-.23-14.45,0-24.94-12.81-30.11-18.29-7.47-7.93-9.06-21.9-10.44-30.87,3.22-.79,6.14,6.14,24.65,6.78,8.67.29,16.94-2.64,24.59-7.84a22.57,22.57,0,0,0,7.4-7.72c-.89-.74-1.81-1.46-2.74-2.14a20.18,20.18,0,0,1-12.08,3.77c-3.66,0-8.61-1.6-15.12-4.87-4.45-2.24-8-4.45-8.15-4.54l-7.84-4.89,4.54-2.73a16.54,16.54,0,0,1-3.2.34c-8.53,0-15.46-4.63-17.16-11l-1.77-.77c-8.3-3.68-15.79-8.31-21.61-15-32.12-36.87-9.94-72.18-2.84-82.4,1.95-2.81,4.23-5.36,6.42-8,2.75-3.3,17.3-18,42.25-23.95A73.25,73.25,0,0,1,180.31,20,85.55,85.55,0,0,1,212,29.09,93.1,93.1,0,0,1,223.48,36a7,7,0,0,0,1.11.51v-.66c-2.51-2.12-5-4.3-7.53-6.37l-.78-.62h0A140.36,140.36,0,0,0,45,249.87c2.38,2,6.74,5.47,6.74,5.47,63.48,51.6,131.87,24.88,131.87,24.88s-31.43,3-56.66-4.27a106.53,106.53,0,0,1-14-5,113.28,113.28,0,0,1-19.56-11.06,117.64,117.64,0,0,1-21.4-19.66,126.91,126.91,0,0,1-14.37-20.9,155.75,155.75,0,0,1-12.89-31.08,120.8,120.8,0,0,1-4.32-20.64,94,94,0,0,1-.72-13.3,83.53,83.53,0,0,1,7.12-32.93,58.61,58.61,0,0,1,7.55-12.56c.51-.65,1.1-1.23,1.66-1.84l.68-.59c-.09.2-.18.4-.26.61a107,107,0,0,0-6.51,14.45,92.8,92.8,0,0,0-4.34,17.12,89.38,89.38,0,0,0-1,17.6,103.63,103.63,0,0,0,2.35,18A118.13,118.13,0,0,0,56,200.4a143.41,143.41,0,0,0,30.83,41.8,99,99,0,0,0,9.83,8.07,10.65,10.65,0,0,0,1.26.78.45.45,0,0,0,.4-.06.57.57,0,0,0,0-.49,5.3,5.3,0,0,0-.58-.69A58.35,58.35,0,0,1,85.26,227a70.69,70.69,0,0,1-2.89-22,83.21,83.21,0,0,1,2.78-18.87,77.74,77.74,0,0,1,5-13.92c1-2,2.11-3.94,3.17-5.91l.69-1c-.09.34-.19.68-.29,1a93.34,93.34,0,0,0-4.13,18.88A95.3,95.3,0,0,0,89,197.69a82.3,82.3,0,0,0,19.56,52.19,59,59,0,0,0,11.27,10.46,43.72,43.72,0,0,0,10.13,5,76.23,76.23,0,0,0,17.92,4.06c4,.42,8.05.59,12.08.86.41,0,.83,0,1.46,0a2.82,2.82,0,0,0-.43-.73,7.09,7.09,0,0,0-.87-.55,53,53,0,0,1-17.4-16.6,49.78,49.78,0,0,1-4-47.18c.38-.92.87-1.8,1.29-2.66.75,0,.81.3.7.79-.32,1.48-.67,3-.91,4.46A49.63,49.63,0,0,0,141.38,231a54.3,54.3,0,0,0,9.07,17.13,63.48,63.48,0,0,0,24.49,19.29,42.63,42.63,0,0,0,12.11,3.49,41.16,41.16,0,0,0,7.61,0c1.65-.09,3.31-.11,5-.2a1.46,1.46,0,0,0,.91-.29c1.05-1,10.49-1.84,19.31-7.83l.56-.39C231.17,254.63,240.72,239,232.42,205.43ZM56.74,106.23a.1.1,0,0,1-.05,0l.06-.11S56.75,106.22,56.74,106.23Z"/><path class="cls-1" d="M167.42,153.91a1.69,1.69,0,0,1,0,3c-5.45,3-17.78,9.21-24.59,9.21a24,24,0,0,1-4.56-.43,20.42,20.42,0,0,1-4.67-1.46c-4.18-1.9-6.92-5.06-6.92-8.63,0-5.82,7.23-10.53,16.15-10.53C149.65,145.06,162,151.06,167.42,153.91Z"/><path class="cls-1" d="M200.17,171.57c0,3.51-2.9,6.6-7.34,8.48a25.9,25.9,0,0,1-10,1.89c-6.82,0-18.79-5.37-25.11-8.45a2.3,2.3,0,0,1,0-4.16c.86-.41,1.83-.85,2.87-1.32,6.61-3,16.33-6.8,22.21-6.8C192.42,161.21,200.17,165.85,200.17,171.57Z"/><path class="cls-1" d="M214,218.49c-6.77,5.62-16.2,10.32-10.75,20.74-7.27-1.28-13.82-8.66-12.74-12.6-6.61.77-30.41-3.53-41-31.48,32.87,21.81,82.32-18.74,43.31-39,18.07-9.1,22.9-33.7,13.31-50.79-.51,10.93-7.73,3.11-11.56-.27-12.34-10.89-16.64-22.33-30.84-1.78-4.07,5.9-8.64,12.09-9.52,19-.12,1-.6,11.57,10.25,24.27-26.62-9.42-21.58-35.78-12.82-41.31,5.6-3.54,6.41-13,10.16-18.37,4-5.72,13.11-16.89,22.73-11.4.32-4.64-2.42-5-5.43-6.24,5.62-.73,10.42-.12,13.11,5.07,18.14-27.57,83.85,87.9,16.89,84.23C226.28,163.82,253.62,185.63,214,218.49Z"/><path class="cls-1" d="M136.21,106.53a16.55,16.55,0,0,1-8.06,5.6,15.94,15.94,0,0,1-5.46.75,15.15,15.15,0,0,1-5.91-1.4,15.56,15.56,0,0,1-8.55-10.23,16.17,16.17,0,0,1-.17-7.36,16.82,16.82,0,0,1,3.18-6.82,16.56,16.56,0,0,1,5.85-4.72,15.79,15.79,0,0,1,14,0,15.82,15.82,0,0,1,5.13,4.14,15.22,15.22,0,0,1,2.8,5.37,15.79,15.79,0,0,1,.62,5.47A16.5,16.5,0,0,1,136.21,106.53Zm-.66-.51a11.49,11.49,0,0,0,2.27-8.44A11.24,11.24,0,0,0,125.16,88a11.14,11.14,0,0,0-4.09,1.38,11.35,11.35,0,0,0-3.25,2.84A11.16,11.16,0,0,0,115.87,96a11,11,0,0,0-.35,4.31,11.44,11.44,0,0,0,1.3,4.14,11.27,11.27,0,0,0,11.1,5.79,11.46,11.46,0,0,0,7.63-4.26Z"/><path class="cls-1" d="M207.28,53.39a9.47,9.47,0,0,1-5.44.5,9,9,0,0,1-2.91-1.12,8.51,8.51,0,0,1-2.56-2.32A8.84,8.84,0,0,1,195,42.91a9.14,9.14,0,0,1,2-3.74A9.58,9.58,0,0,1,204.86,36a9.23,9.23,0,0,1,4,1.31,8.83,8.83,0,0,1,4.19,6.4,8.54,8.54,0,0,1-.23,3.44A9,9,0,0,1,211.55,50,9.46,9.46,0,0,1,207.28,53.39Zm-.19-.48a6.32,6.32,0,0,0,3.4-3.38,6.16,6.16,0,0,0-3.37-8,6.15,6.15,0,0,0-8,3.2,6.14,6.14,0,0,0,3.12,8.12A6.29,6.29,0,0,0,207.09,52.91Z"/><path class="cls-1" d="M235.31,74a23.17,23.17,0,0,1-3.57-13.37l.15-1.87c.11-.62.21-1.26.32-1.9l.24-1c.08-.31.15-.64.25-1,.21-.63.42-1.27.67-1.91a22.34,22.34,0,0,1,4.68-7.13,21.92,21.92,0,0,1,7.78-5.07c.76-.27,1.54-.5,2.34-.73s1.61-.34,2.43-.48,1.66-.15,2.5-.2,1.69,0,2.54.09a22.73,22.73,0,0,1,9.79,3.28A23.38,23.38,0,0,1,276.38,60.2a22.64,22.64,0,0,1-1.25,10.24c-.32.79-.65,1.57-1,2.32s-.81,1.48-1.26,2.17-1,1.36-1.48,2-1.09,1.22-1.66,1.79-1.2,1.08-1.82,1.56-1.29.92-1.95,1.34-1.36.75-2,1.09-1.41.58-2.09.85a22.06,22.06,0,0,1-8.43,1.17A22.7,22.7,0,0,1,245.85,83,23.06,23.06,0,0,1,235.31,74Zm1-.62a16.15,16.15,0,0,0,10.14,7,15.66,15.66,0,0,0,6.25.07A15.93,15.93,0,0,0,265.36,62.1a15.7,15.7,0,0,0-2.22-5.67,15.67,15.67,0,0,0-9.74-7,16.21,16.21,0,0,0-6.13-.25,15.9,15.9,0,0,0-13,12,16.44,16.44,0,0,0-.2,6.29A16.27,16.27,0,0,0,236.28,73.4Z"/><path class="cls-1" d="M242.74,229.75c0,.15,0,.3-.05.45-.22.16-.43.32-.63.49Z"/><path class="cls-1" d="M287,223.73c-2.16,3.58-16.73,16.54-28.27,21.8-10.47,4.77-15.86,4.21-21.43,2.28,1.65-.72,3.5-1.53,5.58-2.49,11.55-5.26,28.1-13.85,31.08-15.64-1.43.4-20.65,7.93-32.19,13.19-2.09.95-3.92,1.81-5.54,2.59a21.31,21.31,0,0,1,7.25-9.78l.21-.15c.26-.2.54-.41.83-.61a47,47,0,0,1,7.48-4.15c.6-.27,1.22-.54,1.87-.79C265.68,225.27,285.16,223.13,287,223.73Z"/><path class="cls-1" d="M256,224.37c-.48,1-1,2.06-1.54,3-.65.26-1.27.52-1.86.79a45.6,45.6,0,0,0-7.79,4.38l.06-.52c2.28-3,4.8-6.64,6.77-9.55h0c1.63-2.42,2.89-4.37,3.28-5.08-.23.2-1.46,1.54-3.13,3.42-1.84,2.09-4.22,4.84-6.4,7.48-.82,1-1.6,2-2.32,2.86-.27.34-.53.67-.77,1-.78,1-1.46,1.91-2.05,2.73-.88-3.54-.93-6.7,2.44-11.37.17-.24.35-.48.54-.73a25.31,25.31,0,0,1,3.45-3.54,52.44,52.44,0,0,1,5.41-4c3.67-2.42,7-4.12,7.72-4.14C259.93,212.91,258.43,219,256,224.37Z"/><path class="cls-1" d="M242.74,229.75c0,.15,0,.3-.05.45-.22.16-.43.32-.63.49Z"/><path class="cls-1" d="M299.78,144.74c-1.65-.19-7-2.39-13.46-5.42-2.19-1-4.52-2.16-6.88-3.33a225.07,225.07,0,0,1-20.24-11.18c-.73-.47-1.43-1-2.11-1.43a65.61,65.61,0,0,1-6.2-4.91,37.38,37.38,0,0,1-3.72-3.84c-.26-.32-.51-.63-.74-.94a24.65,24.65,0,0,1-4-8c1.57,1.16,3.34,2.43,5.37,3.87,11.21,8,28.15,18.94,31.4,20.82-1.18-1.07-18.82-14.79-30-22.74-2-1.43-3.82-2.69-5.42-3.79a27.2,27.2,0,0,1,5.07.22,26.49,26.49,0,0,0,20.17,7.5c5.12,3.73,11.9,10.64,17.79,17.19,1,1.12,2,2.22,2.92,3.3C295.29,138.46,299.51,143.88,299.78,144.74Z"/><path class="cls-1" d="M300.71,103.16c-3.45,2-20.74,5.92-32.46,5.15h0c-.28,0-.56,0-.83-.06-10-.87-14-3.61-17.24-7.51-.21-.25-.42-.51-.62-.77,1.66.18,3.52.36,5.64.54,11.71,1,29,1.6,32.29,1.5-1.32-.34-20.18-3.1-31.89-4.12-2.11-.19-4-.33-5.64-.45,4.54-3.61,9.26-5.91,19.88-5C281.55,93.48,299.57,101.72,300.71,103.16Z"/><path class="cls-1" d="M259.37,155.37a22.13,22.13,0,0,1-3.8-3.87c-1.4-1.68-3-3.76-4.52-6a56.77,56.77,0,0,1-6.67-12.65c-2.64-7.88-1.7-12,.43-16,.23.31.47.63.74.94.28.9.6,1.88.95,2.93,3,9,8.29,22.07,9.43,24.43-.15-1-3.72-14.4-6.67-23.51a67.6,67.6,0,0,0,6.21,4.9c.68.48,1.38,1,2.11,1.44l.12.35C260.74,137.39,260.13,154,259.37,155.37Z"/><path class="cls-1" d="M253,180.23h0l-14.22-1.64h-.26a1.09,1.09,0,0,0,.13,2.18h.05a50,50,0,0,1-.06,8c-.5,3.1-2,13.19-2,13.19s3.09,4.57,5.24,16.87c.14-.2.29-.41.45-.62.75-1,5.24-3.37,6.4-4.4,0,0,.46-11.63.86-15.72a117.81,117.81,0,0,1,2.88-15.7,1,1,0,0,0,.41.06,1.1,1.1,0,0,0,.1-2.17Z"/><path class="cls-1" d="M253.81,174.06a1.12,1.12,0,0,1-1.16,1.05,1.45,1.45,0,0,1-.3,0l-12.7-1.85h0a1.07,1.07,0,0,1-.83-1A1.11,1.11,0,0,1,240,171.2a1.36,1.36,0,0,1,.36.05c1.09-3.13,1.48-9,1.87-10.89.45-2.1.82-6.49,1.28-8.9a1,1,0,0,1-.83-1,1.11,1.11,0,0,1,1.15-1.05h.06l.13,0h.09l5.66,1c1.51,2.22,3.06,4.25,4.42,5.88-.38,2-.75,4.26-1,5.6a94.5,94.5,0,0,0-.65,11.11h.12A1.12,1.12,0,0,1,253.81,174.06Z"/><path class="cls-1" d="M270.64,187.21c-.13.59-.56,1-1,1a.47.47,0,0,1-.25-.11c-1.35,3.07-3.92,8.81-5.95,14.88a16.65,16.65,0,0,1-.73,2c-.68,0-4.94,2.13-8.61,4.55a27.33,27.33,0,0,0-.2-4.6s3.58-9.62,4.71-12.57a76.45,76.45,0,0,0,2.1-7.75h0c-.4-.05-.62-.57-.49-1.15s.56-1,1-1h0l0,0,.09,0,9,3.59h0A1,1,0,0,1,270.64,187.21Z"/><path class="cls-1" d="M280.54,157.33a.64.64,0,0,0-.18-.06l-8.29-2.56v0a1,1,0,0,0-.92.59,1,1,0,0,0,.21,1.33.19.19,0,0,0,.09,0l.06.05c-.92,2.29-2.3,6.51-3.14,8.49-.45,1.08-1.29,3.62-2.22,6.09-.35.87-.71,1.76-1,2.57-.26.62-.53,1.19-.79,1.69a.48.48,0,0,0-.23-.1,1,1,0,0,0-1,.86,1,1,0,0,0,.3,1v0l7.9,3.58a.36.36,0,0,0,.18.07,1,1,0,0,0,1-.86.88.88,0,0,0-.53-1.15h-.08c.49-1.74,1.2-4.26,1.88-6.48.44-1.23.86-2.38,1.14-3.2.64-1.92,3.21-7.27,4.65-10.23l.06.05c.38.22.89,0,1.16-.52A1,1,0,0,0,280.54,157.33Z"/><path class="cls-1" d="M278.85,140.58c2.37,1.17,3.65,1.94,5.84,3-.51,1.15-2,6.46-2.51,8.2h.08a.87.87,0,0,1,.52,1.15,1,1,0,0,1-1,.86.44.44,0,0,1-.19-.07l-7.9-3.58v0a1,1,0,0,1-.3-1,1,1,0,0,1,1-.86.52.52,0,0,1,.23.1C274.89,147.8,278.58,141.34,278.85,140.58Z"/><path class="cls-1" d="M248.18,13.52A3.48,3.48,0,0,0,245.3,12l0-.06A3.65,3.65,0,0,0,246,7.74a3.47,3.47,0,0,0-2.27-2c-1.16-.29-2.52,0-4.29.87a24,24,0,0,0-3.28,1.92l5.94,12.19,2.23-1.09-2.47-5.08L243,14c1.3-.59,2.14-.37,3.27,1.08a20.47,20.47,0,0,0,2.25,2.51l2.33-1.14A27.57,27.57,0,0,1,248.18,13.52Zm-5.79-1.23-1.34.65L239.15,9a7.12,7.12,0,0,1,1.34-.79c1.47-.71,2.72-.56,3.38.8S243.91,11.55,242.39,12.29Z"/><path class="cls-1" d="M254.37,7.07A12.58,12.58,0,1,0,239,24.47a12.57,12.57,0,0,0,15.4-17.4ZM247.56,21.8a10.25,10.25,0,1,1,4.72-13.71A10.27,10.27,0,0,1,247.56,21.8Z"/></g></g></svg>